<?xml version="1.0" encoding="UTF-8"?>
<!DOCTYPE svg PUBLIC "-//W3C//DTD SVG 1.0//EN" "http://www.w3.org/TR/2001/REC-SVG-20010904/DTD/svg10.dtd">
<svg fill-opacity="1" xmlns:xlink="http://www.w3.org/1999/xlink" color-rendering="auto" color-interpolation="auto" stroke="black" text-rendering="auto" stroke-linecap="square" stroke-miterlimit="10" stroke-opacity="1" shape-rendering="auto" fill="black" stroke-dasharray="none" font-weight="normal" stroke-width="1" xmlns="http://www.w3.org/2000/svg" font-family="'Dialog'" font-style="normal" stroke-linejoin="miter" font-size="12" stroke-dashoffset="0" image-rendering="auto">
  <!--Unicode Character 'WHITE CHESS QUEEN' (U+2655)-->
  <defs id="genericDefs"/>
  <g>
    <g>
      <path d="M200.1094 288.2812 L225.2812 261.2812 Q250.3125 234.5625 250.3125 234.7031 Q244.8281 230.0625 244.8281 222.8906 Q244.8281 216.5625 249.1875 212.2031 Q253.5469 207.8438 259.7344 207.8438 Q266.0625 207.8438 270.4219 212.2031 Q274.7812 216.5625 274.7812 222.8906 Q274.7812 229.0781 270.4219 233.4375 Q266.0625 237.7969 259.7344 237.7969 L258.0469 237.7969 L221.2031 325.6875 L221.2031 393.0469 Q221.2031 404.2969 196.3125 411.9609 Q171.4219 419.625 143.4375 419.625 Q115.3125 419.625 90.4922 411.9609 Q65.6719 404.2969 65.6719 393.0469 L65.6719 325.6875 L28.8281 237.7969 L27.1406 237.7969 Q20.8125 237.7969 16.4531 233.4375 Q12.0938 229.0781 12.0938 222.8906 Q12.0938 216.5625 16.4531 212.2031 Q20.8125 207.8438 27.1406 207.8438 Q33.3281 207.8438 37.6875 212.2031 Q42.0469 216.5625 42.0469 222.8906 Q42.0469 230.2031 36.5625 234.4219 L86.625 288.2812 L82.4062 215.1562 Q76.3594 215.1562 72 210.7266 Q67.6406 206.2969 67.6406 200.1094 Q67.6406 193.7812 72 189.4922 Q76.3594 185.2031 82.6875 185.2031 Q88.875 185.2031 93.2344 189.5625 Q97.5938 193.9219 97.5938 200.1094 Q97.5938 208.125 90.7031 212.7656 L123.3281 278.7188 L139.0781 205.3125 Q128.3906 201.9375 128.3906 190.9688 Q128.3906 184.6406 132.75 180.2812 Q137.1094 175.9219 143.4375 175.9219 Q149.625 175.9219 153.9844 180.2812 Q158.3438 184.6406 158.3438 190.9688 Q158.3438 201.9375 147.7969 205.3125 L163.5469 278.7188 L196.1719 212.7656 Q189.2812 208.5469 189.2812 200.1094 Q189.2812 193.9219 193.6406 189.5625 Q198 185.2031 204.1875 185.2031 Q210.375 185.2031 214.8047 189.5625 Q219.2344 193.9219 219.2344 200.1094 Q219.2344 206.2969 214.875 210.7266 Q210.5156 215.1562 204.4688 215.1562 L200.1094 288.2812 ZM143.4375 197.8594 Q146.25 197.8594 148.2891 195.75 Q150.3281 193.6406 150.3281 190.9688 Q150.3281 188.1562 148.2891 186.0469 Q146.25 183.9375 143.4375 183.9375 Q140.625 183.9375 138.5859 186.0469 Q136.5469 188.1562 136.5469 190.9688 Q136.5469 193.6406 138.5859 195.75 Q140.625 197.8594 143.4375 197.8594 ZM204.1875 207 Q207 207 209.0391 204.9609 Q211.0781 202.9219 211.0781 200.1094 Q211.0781 197.2969 209.0391 195.2578 Q207 193.2188 204.1875 193.2188 Q201.375 193.2188 199.3359 195.2578 Q197.2969 197.2969 197.2969 200.1094 Q197.2969 202.9219 199.3359 204.9609 Q201.375 207 204.1875 207 ZM82.6875 207 Q85.5 207 87.5391 204.9609 Q89.5781 202.9219 89.5781 200.1094 Q89.5781 197.2969 87.5391 195.2578 Q85.5 193.2188 82.6875 193.2188 Q79.875 193.2188 77.8359 195.2578 Q75.7969 197.2969 75.7969 200.1094 Q75.7969 202.9219 77.8359 204.9609 Q79.875 207 82.6875 207 ZM259.7344 229.7812 Q262.5469 229.7812 264.5859 227.7422 Q266.625 225.7031 266.625 222.8906 Q266.625 220.0781 264.5859 218.0391 Q262.5469 216 259.7344 216 Q256.9219 216 254.8828 218.0391 Q252.8438 220.0781 252.8438 222.8906 Q252.8438 225.7031 254.8828 227.7422 Q256.9219 229.7812 259.7344 229.7812 ZM27.1406 229.7812 Q29.8125 229.7812 31.9219 227.7422 Q34.0312 225.7031 34.0312 222.8906 Q34.0312 220.0781 31.9219 218.0391 Q29.8125 216 27.1406 216 Q24.3281 216 22.2188 218.0391 Q20.1094 220.0781 20.1094 222.8906 Q20.1094 225.7031 22.2188 227.7422 Q24.3281 229.7812 27.1406 229.7812 ZM241.875 255.375 L190.6875 310.0781 L194.9062 233.8594 L160.4531 303.1875 L143.4375 223.1719 L126.4219 303.1875 L91.8281 233.8594 L96.1875 310.0781 L44.8594 255.375 L75.7969 329.2031 Q100.6875 313.5938 143.4375 313.5938 Q186.0469 313.5938 211.0781 329.2031 L241.875 255.375 ZM213.1875 376.5938 L213.1875 370.2656 L202.2188 353.3906 L213.1875 346.6406 L213.1875 342.4219 Q206.0156 333 186.6797 327.3047 Q167.3438 321.6094 143.4375 321.6094 Q119.5312 321.6094 100.1953 327.3047 Q80.8594 333 73.6875 342.4219 L73.6875 346.6406 L84.6562 353.3906 L73.6875 370.2656 L73.6875 376.5938 Q102.375 360.8438 143.4375 360.8438 Q184.5 360.8438 213.1875 376.5938 ZM161.2969 340.0312 L143.4375 352.6875 L125.5781 340.0312 L143.4375 328.7812 L161.2969 340.0312 ZM143.4375 411.4688 Q164.3906 411.4688 188.7891 404.7891 Q213.1875 398.1094 213.1875 390.2344 Q213.1875 383.2031 191.0391 376.0312 Q168.8906 368.8594 143.4375 368.8594 Q117.9844 368.8594 95.8359 376.0312 Q73.6875 383.2031 73.6875 390.2344 Q73.6875 398.1094 98.0859 404.7891 Q122.4844 411.4688 143.4375 411.4688 Z" stroke="none"/>
    </g>
  </g>
</svg>