<?xml version="1.0" encoding="UTF-8" standalone="no"?>
<!-- Created with Inkscape (http://www.inkscape.org/) -->

<svg
   xmlns:dc="http://purl.org/dc/elements/1.1/"
   xmlns:cc="http://creativecommons.org/ns#"
   xmlns:rdf="http://www.w3.org/1999/02/22-rdf-syntax-ns#"
   xmlns:svg="http://www.w3.org/2000/svg"
   xmlns="http://www.w3.org/2000/svg"
   xmlns:sodipodi="http://sodipodi.sourceforge.net/DTD/sodipodi-0.dtd"
   xmlns:inkscape="http://www.inkscape.org/namespaces/inkscape"
   width="744.09448"
   height="1052.3622"
   id="svg3169"
   version="1.1"
   inkscape:version="0.48.0 r9654"
   sodipodi:docname="Fig2.8c.pdf"
   style="display:inline">
  <defs
     id="defs3171" />
  <sodipodi:namedview
     id="base"
     pagecolor="#ffffff"
     bordercolor="#666666"
     borderopacity="1.0"
     inkscape:pageopacity="0.0"
     inkscape:pageshadow="2"
     inkscape:zoom="1.979899"
     inkscape:cx="141.83365"
     inkscape:cy="832.10134"
     inkscape:document-units="px"
     inkscape:current-layer="layer4"
     showgrid="false"
     inkscape:window-width="1440"
     inkscape:window-height="823"
     inkscape:window-x="0"
     inkscape:window-y="24"
     inkscape:window-maximized="1">
    <inkscape:grid
       type="xygrid"
       id="grid3177" />
  </sodipodi:namedview>
  <metadata
     id="metadata3174">
    <rdf:RDF>
      <cc:Work
         rdf:about="">
        <dc:format>image/svg+xml</dc:format>
        <dc:type
           rdf:resource="http://purl.org/dc/dcmitype/StillImage" />
        <dc:title></dc:title>
      </cc:Work>
    </rdf:RDF>
  </metadata>
  <g
     inkscape:groupmode="layer"
     id="layer4"
     inkscape:label="Chessboard"
     style="display:inline">
    <path
       style="fill:#cecece;fill-opacity:1;stroke:#cecece;stroke-width:0.89999998;stroke-linecap:round;stroke-linejoin:round;stroke-miterlimit:4;stroke-opacity:1;stroke-dasharray:none;stroke-dashoffset:0;display:inline"
       d="m 85.17257,219.75705 0,-12.14286 12.32143,0 12.32142,0 0,12.14286 0,12.14286 -12.32142,0 -12.32143,0 0,-12.14286 z"
       id="path4737-53"
       inkscape:connector-curvature="0" />
    <path
       style="fill:#cecece;fill-opacity:1;stroke:#cecece;stroke-width:0.89999998;stroke-linecap:round;stroke-linejoin:round;stroke-miterlimit:4;stroke-opacity:1;stroke-dasharray:none;stroke-dashoffset:0;display:inline"
       d="m 135.17257,219.75705 0,-12.14286 12.32143,0 12.32142,0 0,12.14286 0,12.14286 -12.32142,0 -12.32143,0 0,-12.14286 z"
       id="path4737-47"
       inkscape:connector-curvature="0" />
    <path
       style="fill:#cecece;fill-opacity:1;stroke:#cecece;stroke-width:0.89999998;stroke-linecap:round;stroke-linejoin:round;stroke-miterlimit:4;stroke-opacity:1;stroke-dasharray:none;stroke-dashoffset:0;display:inline"
       d="m 185.17257,219.75705 0,-12.14286 12.32143,0 12.32142,0 0,12.14286 0,12.14286 -12.32142,0 -12.32143,0 0,-12.14286 z"
       id="path4737-7"
       inkscape:connector-curvature="0" />
    <path
       style="fill:#cecece;fill-opacity:1;stroke:#cecece;stroke-width:0.89999998;stroke-linecap:round;stroke-linejoin:round;stroke-miterlimit:4;stroke-opacity:1;stroke-dasharray:none;stroke-dashoffset:0;display:inline"
       d="m 235.17257,219.75705 0,-12.14286 12.32143,0 12.32142,0 0,12.14286 0,12.14286 -12.32142,0 -12.32143,0 0,-12.14286 z"
       id="path4737-13"
       inkscape:connector-curvature="0" />
    <path
       style="fill:#cecece;fill-opacity:1;stroke:#cecece;stroke-width:0.89999998;stroke-linecap:round;stroke-linejoin:round;stroke-miterlimit:4;stroke-opacity:1;stroke-dasharray:none;stroke-dashoffset:0;display:inline"
       d="m 60.17257,194.75705 0,-12.14286 12.32143,0 12.32142,0 0,12.14286 0,12.14286 -12.32142,0 -12.32143,0 0,-12.14286 z"
       id="path4737-3"
       inkscape:connector-curvature="0" />
    <path
       style="fill:#cecece;fill-opacity:1;stroke:#cecece;stroke-width:0.89999998;stroke-linecap:round;stroke-linejoin:round;stroke-miterlimit:4;stroke-opacity:1;stroke-dasharray:none;stroke-dashoffset:0;display:inline"
       d="m 110.17257,194.75705 0,-12.14286 12.32143,0 12.32142,0 0,12.14286 0,12.14286 -12.32142,0 -12.32143,0 0,-12.14286 z"
       id="path4737-30"
       inkscape:connector-curvature="0" />
    <path
       style="fill:#cecece;fill-opacity:1;stroke:#cecece;stroke-width:0.89999998;stroke-linecap:round;stroke-linejoin:round;stroke-miterlimit:4;stroke-opacity:1;stroke-dasharray:none;stroke-dashoffset:0;display:inline"
       d="m 160.17257,194.75705 0,-12.14286 12.32143,0 12.32142,0 0,12.14286 0,12.14286 -12.32142,0 -12.32143,0 0,-12.14286 z"
       id="path4737-9"
       inkscape:connector-curvature="0" />
    <path
       style="fill:#cecece;fill-opacity:1;stroke:#cecece;stroke-width:0.89999998;stroke-linecap:round;stroke-linejoin:round;stroke-miterlimit:4;stroke-opacity:1;stroke-dasharray:none;stroke-dashoffset:0;display:inline"
       d="m 210.17257,194.75705 0,-12.14286 12.32143,0 12.32142,0 0,12.14286 0,12.14286 -12.32142,0 -12.32143,0 0,-12.14286 z"
       id="path4737-301"
       inkscape:connector-curvature="0" />
    <path
       style="fill:#cecece;fill-opacity:1;stroke:#cecece;stroke-width:0.89999998;stroke-linecap:round;stroke-linejoin:round;stroke-miterlimit:4;stroke-opacity:1;stroke-dasharray:none;stroke-dashoffset:0;display:inline"
       d="m 85.17257,169.75705 0,-12.14286 12.32143,0 12.32142,0 0,12.14286 0,12.14286 -12.32142,0 -12.32143,0 0,-12.14286 z"
       id="path4737-6"
       inkscape:connector-curvature="0" />
    <path
       style="fill:#cecece;fill-opacity:1;stroke:#cecece;stroke-width:0.89999998;stroke-linecap:round;stroke-linejoin:round;stroke-miterlimit:4;stroke-opacity:1;stroke-dasharray:none;stroke-dashoffset:0;display:inline"
       d="m 135.17257,169.75705 0,-12.14286 12.32143,0 12.32142,0 0,12.14286 0,12.14286 -12.32142,0 -12.32143,0 0,-12.14286 z"
       id="path4737-79"
       inkscape:connector-curvature="0" />
    <path
       style="fill:#cecece;fill-opacity:1;stroke:#cecece;stroke-width:0.89999998;stroke-linecap:round;stroke-linejoin:round;stroke-miterlimit:4;stroke-opacity:1;stroke-dasharray:none;stroke-dashoffset:0;display:inline"
       d="m 185.17257,169.75705 0,-12.14286 12.32143,0 12.32142,0 0,12.14286 0,12.14286 -12.32142,0 -12.32143,0 0,-12.14286 z"
       id="path4737-43"
       inkscape:connector-curvature="0" />
    <path
       style="fill:#cecece;fill-opacity:1;stroke:#cecece;stroke-width:0.89999998;stroke-linecap:round;stroke-linejoin:round;stroke-miterlimit:4;stroke-opacity:1;stroke-dasharray:none;stroke-dashoffset:0;display:inline"
       d="m 235.17257,169.75705 0,-12.14286 12.32143,0 12.32142,0 0,12.14286 0,12.14286 -12.32142,0 -12.32143,0 0,-12.14286 z"
       id="path4737-86"
       inkscape:connector-curvature="0" />
    <path
       style="fill:#cecece;fill-opacity:1;stroke:#cecece;stroke-width:0.89999998;stroke-linecap:round;stroke-linejoin:round;stroke-miterlimit:4;stroke-opacity:1;stroke-dasharray:none;stroke-dashoffset:0;display:inline"
       d="m 60.17257,144.75705 0,-12.14286 12.32143,0 12.32142,0 0,12.14286 0,12.14286 -12.32142,0 -12.32143,0 0,-12.14286 z"
       id="path4737-01"
       inkscape:connector-curvature="0" />
    <path
       style="fill:#cecece;fill-opacity:1;stroke:#cecece;stroke-width:0.89999998;stroke-linecap:round;stroke-linejoin:round;stroke-miterlimit:4;stroke-opacity:1;stroke-dasharray:none;stroke-dashoffset:0;display:inline"
       d="m 110.17257,144.75705 0,-12.14286 12.32143,0 12.32142,0 0,12.14286 0,12.14286 -12.32142,0 -12.32143,0 0,-12.14286 z"
       id="path4737-42"
       inkscape:connector-curvature="0" />
    <path
       style="fill:#cecece;fill-opacity:1;stroke:#cecece;stroke-width:0.89999998;stroke-linecap:round;stroke-linejoin:round;stroke-miterlimit:4;stroke-opacity:1;stroke-dasharray:none;stroke-dashoffset:0;display:inline"
       d="m 160.17257,144.75705 0,-12.14286 12.32143,0 12.32142,0 0,12.14286 0,12.14286 -12.32142,0 -12.32143,0 0,-12.14286 z"
       id="path4737-12"
       inkscape:connector-curvature="0" />
    <path
       style="fill:#cecece;fill-opacity:1;stroke:#cecece;stroke-width:0.89999998;stroke-linecap:round;stroke-linejoin:round;stroke-miterlimit:4;stroke-opacity:1;stroke-dasharray:none;stroke-dashoffset:0;display:inline"
       d="m 210.17257,144.75705 0,-12.14286 12.32143,0 12.32142,0 0,12.14286 0,12.14286 -12.32142,0 -12.32143,0 0,-12.14286 z"
       id="path4737-70"
       inkscape:connector-curvature="0" />
    <path
       style="fill:#cecece;fill-opacity:1;stroke:#cecece;stroke-width:0.89999998;stroke-linecap:round;stroke-linejoin:round;stroke-miterlimit:4;stroke-opacity:1;stroke-dasharray:none;stroke-dashoffset:0;display:inline"
       d="m 85.17257,119.75705 0,-12.14286 12.32143,0 12.32142,0 0,12.14286 0,12.14286 -12.32142,0 -12.32143,0 0,-12.14286 z"
       id="path4737-436"
       inkscape:connector-curvature="0" />
    <path
       style="fill:#cecece;fill-opacity:1;stroke:#cecece;stroke-width:0.89999998;stroke-linecap:round;stroke-linejoin:round;stroke-miterlimit:4;stroke-opacity:1;stroke-dasharray:none;stroke-dashoffset:0;display:inline"
       d="m 135.17257,119.75705 0,-12.14286 12.32143,0 12.32142,0 0,12.14286 0,12.14286 -12.32142,0 -12.32143,0 0,-12.14286 z"
       id="path4737-64"
       inkscape:connector-curvature="0" />
    <path
       style="fill:#cecece;fill-opacity:1;stroke:#cecece;stroke-width:0.89999998;stroke-linecap:round;stroke-linejoin:round;stroke-miterlimit:4;stroke-opacity:1;stroke-dasharray:none;stroke-dashoffset:0;display:inline"
       d="m 185.17257,119.75705 0,-12.14286 12.32143,0 12.32142,0 0,12.14286 0,12.14286 -12.32142,0 -12.32143,0 0,-12.14286 z"
       id="path4737-07"
       inkscape:connector-curvature="0" />
    <path
       style="fill:#cecece;fill-opacity:1;stroke:#cecece;stroke-width:0.89999998;stroke-linecap:round;stroke-linejoin:round;stroke-miterlimit:4;stroke-opacity:1;stroke-dasharray:none;stroke-dashoffset:0;display:inline"
       d="m 257.45743,107.73525 c 0.866,0.26342 1.53135,0.81964 1.97351,1.64978 0.2237,0.42002 0.23708,0.98865 0.26964,11.45892 l 0.0343,11.01698 -12.12452,0 -12.12452,0 0,-12.12183 0,-12.12183 10.82757,0.0108 c 5.95516,0.006 10.96999,0.0542 11.14406,0.10714 z"
       id="path4735-1-3"
       inkscape:connector-curvature="0" />
    <path
       style="fill:#cecece;fill-opacity:1;stroke:#cecece;stroke-width:0.89999998;stroke-linecap:round;stroke-linejoin:round;stroke-miterlimit:4;stroke-opacity:1;stroke-dasharray:none;stroke-dashoffset:0;display:inline"
       d="m 60.17257,244.75705 0,-12.14286 12.32143,0 12.32142,0 0,12.14286 0,12.14286 -12.32142,0 -12.32143,0 0,-12.14286 z"
       id="path4737-17"
       inkscape:connector-curvature="0" />
    <path
       style="fill:#cecece;fill-opacity:1;stroke:#cecece;stroke-width:0.89999998;stroke-linecap:round;stroke-linejoin:round;stroke-miterlimit:4;stroke-opacity:1;stroke-dasharray:none;stroke-dashoffset:0;display:inline"
       d="m 110.17257,244.75705 0,-12.14286 12.32143,0 12.32142,0 0,12.14286 0,12.14286 -12.32142,0 -12.32143,0 0,-12.14286 z"
       id="path4737-0"
       inkscape:connector-curvature="0" />
    <path
       style="fill:#cecece;fill-opacity:1;stroke:#cecece;stroke-width:0.89999998;stroke-linecap:round;stroke-linejoin:round;stroke-miterlimit:4;stroke-opacity:1;stroke-dasharray:none;stroke-dashoffset:0;display:inline"
       d="m 160.17257,244.75705 0,-12.14286 12.32143,0 12.32142,0 0,12.14286 0,12.14286 -12.32142,0 -12.32143,0 0,-12.14286 z"
       id="path4737-5"
       inkscape:connector-curvature="0" />
    <path
       style="fill:#cecece;fill-opacity:1;stroke:#cecece;stroke-width:0.89999998;stroke-linecap:round;stroke-linejoin:round;stroke-miterlimit:4;stroke-opacity:1;stroke-dasharray:none;stroke-dashoffset:0;display:inline"
       d="m 210.17257,244.75705 0,-12.14286 12.32143,0 12.32142,0 0,12.14286 0,12.14286 -12.32142,0 -12.32143,0 0,-12.14286 z"
       id="path4737-89"
       inkscape:connector-curvature="0" />
    <path
       style="fill:#cecece;fill-opacity:1;stroke:#cecece;stroke-width:0.89999998;stroke-linecap:round;stroke-linejoin:round;stroke-miterlimit:4;stroke-opacity:1;stroke-dasharray:none;stroke-dashoffset:0;display:inline"
       d="m 85.172567,269.75705 0,-12.14286 12.321429,0 12.321424,0 0,12.14286 0,12.14286 -12.321424,0 -12.321429,0 0,-12.14286 z"
       id="path4743"
       inkscape:connector-curvature="0" />
    <path
       style="fill:#cecece;fill-opacity:1;stroke:#cecece;stroke-width:0.89999998;stroke-linecap:round;stroke-linejoin:round;stroke-miterlimit:4;stroke-opacity:1;stroke-dasharray:none;stroke-dashoffset:0;display:inline"
       d="m 135.17257,269.75705 0,-12.14286 12.32143,0 12.32142,0 0,12.14286 0,12.14286 -12.32142,0 -12.32143,0 0,-12.14286 z"
       id="path4737-4"
       inkscape:connector-curvature="0" />
    <path
       style="fill:#cecece;fill-opacity:1;stroke:#cecece;stroke-width:0.89999998;stroke-linecap:round;stroke-linejoin:round;stroke-miterlimit:4;stroke-opacity:1;stroke-dasharray:none;stroke-dashoffset:0;display:inline"
       d="m 185.17257,269.75705 0,-12.14286 12.32143,0 12.32142,0 0,12.14286 0,12.14286 -12.32142,0 -12.32143,0 0,-12.14286 z"
       id="path4737-8"
       inkscape:connector-curvature="0" />
    <path
       style="fill:#cecece;fill-opacity:1;stroke:#cecece;stroke-width:0.89999998;stroke-linecap:round;stroke-linejoin:round;stroke-miterlimit:4;stroke-opacity:1;stroke-dasharray:none;stroke-dashoffset:0;display:inline"
       d="m 235.17257,269.75705 0,-12.14286 12.32143,0 12.32142,0 0,12.14286 0,12.14286 -12.32142,0 -12.32143,0 0,-12.14286 z"
       id="path4737-1"
       inkscape:connector-curvature="0" />
    <path
       style="fill:#cecece;fill-opacity:1;stroke:#cecece;stroke-width:0.89999998;stroke-linecap:round;stroke-linejoin:round;stroke-miterlimit:4;stroke-opacity:1;stroke-dasharray:none;stroke-dashoffset:0;display:inline"
       d="m 62.76329,306.74295 c -0.865999,-0.26342 -1.531354,-0.81964 -1.973505,-1.64978 -0.223705,-0.42002 -0.237086,-0.98865 -0.269645,-11.45892 l -0.03426,-11.01698 12.124522,0 12.124522,0 0,12.12183 0,12.12183 -10.827572,-0.0108 c -5.955165,-0.006 -10.969993,-0.0542 -11.144063,-0.10714 z"
       id="path4735"
       inkscape:connector-curvature="0" />
    <path
       style="fill:#cecece;fill-opacity:1;stroke:#cecece;stroke-width:0.89999998;stroke-linecap:round;stroke-linejoin:round;stroke-miterlimit:4;stroke-opacity:1;stroke-dasharray:none;stroke-dashoffset:0;display:inline"
       d="m 110.17257,294.75705 0,-12.14286 12.32143,0 12.32142,0 0,12.14286 0,12.14286 -12.32142,0 -12.32143,0 0,-12.14286 z"
       id="path4737"
       inkscape:connector-curvature="0" />
    <path
       style="fill:#cecece;fill-opacity:1;stroke:#cecece;stroke-width:0.89999998;stroke-linecap:round;stroke-linejoin:round;stroke-miterlimit:4;stroke-opacity:1;stroke-dasharray:none;stroke-dashoffset:0;display:inline"
       d="m 160.17257,294.75705 0,-12.14286 12.32143,0 12.32142,0 0,12.14286 0,12.14286 -12.32142,0 -12.32143,0 0,-12.14286 z"
       id="path4737-129"
       inkscape:connector-curvature="0" />
    <path
       style="fill:#cecece;fill-opacity:1;stroke:#cecece;stroke-width:0.89999998;stroke-linecap:round;stroke-linejoin:round;stroke-miterlimit:4;stroke-opacity:1;stroke-dasharray:none;stroke-dashoffset:0;display:inline"
       d="m 210.17257,294.75705 0,-12.14286 12.32143,0 12.32142,0 0,12.14286 0,12.14286 -12.32142,0 -12.32143,0 0,-12.14286 z"
       id="path4737-15"
       inkscape:connector-curvature="0" />
  </g>
  <g
     inkscape:groupmode="layer"
     id="layer7"
     inkscape:label="Border"
     style="display:inline">
    <rect
       style="fill:none;stroke:#cecece;stroke-width:0.88582677;stroke-linecap:round;stroke-linejoin:round;stroke-miterlimit:4;stroke-opacity:1;stroke-dasharray:none;stroke-dashoffset:0;display:inline"
       id="rect3794-77-9-0"
       width="200"
       height="200"
       x="60"
       y="107.36218"
       rx="3.5433071"
       ry="3.5433071" />
  </g>
  <g
     inkscape:groupmode="layer"
     id="layer1"
     inkscape:label="Queens"
     style="display:inline">
    <g
       style="display:inline"
       transform="matrix(0.03377892,0,0,0.03377892,171.41733,106.34745)"
       id="layer1-4-6">
      <path
         style="fill:none;stroke:#000000;stroke-width:0.53149605;stroke-miterlimit:4;stroke-opacity:1;stroke-dasharray:none"
         d="m 197.3125,112.59565 c -0.20326,0.0517 -0.40395,0.19942 -0.53125,0.40625 -0.0903,0.14669 -0.0937,0.18038 -0.0937,0.40625 0,0.21893 0.0137,0.30126 0.0937,0.4375 0.10596,0.18026 0.25116,0.30923 0.4375,0.375 0.0697,0.0246 0.12729,0.0475 0.125,0.0625 -0.0759,0.49829 -1.17578,6.62309 -1.1875,6.6231 -0.009,1e-5 -0.50751,-1.39527 -1.09375,-3.09375 L 194,114.71875 l 0.1875,-0.125 c 0.10161,-0.0671 0.18915,-0.15078 0.25,-0.25 0.0901,-0.14686 0.125,-0.20901 0.125,-0.4375 0,-0.22882 -0.0345,-0.29042 -0.125,-0.4375 -0.33946,-0.55154 -1.09804,-0.55154 -1.4375,0 -0.0903,0.14669 -0.0937,0.21163 -0.0937,0.4375 0,0.21991 0.012,0.26719 0.0937,0.40625 0.11262,0.19159 0.29832,0.35547 0.5,0.40625 0.1244,0.0313 0.15492,0.0489 0.15625,0.125 0.002,0.10182 -0.36807,6.44688 -0.375,6.4375 -0.002,-0.003 -0.57283,-1.19859 -1.28125,-2.65625 -1.0283,-2.11584 -1.28904,-2.50813 -1.25,-2.52998 0.33757,-0.18891 0.49722,-0.60077 0.375,-0.96875 -0.0716,-0.21549 -0.1713,-0.349 -0.375,-0.46875 -0.13321,-0.0783 -0.19114,-0.0937 -0.40625,-0.0937 -0.21511,0 -0.27304,0.0154 -0.40625,0.0937 -0.2037,0.11975 -0.30342,0.25326 -0.375,0.46875 -0.16841,0.50703 0.16325,0.99311 0.71875,1.0625 l 0.1875,0.0312 0.3125,2.46748 c 0.10824,1.46917 0.24178,3.06104 1.03125,4.03125 0.33376,0.4065 0.62111,0.77653 0.65625,0.84375 0.54205,0.99657 0.52327,1.58541 0.3125,2.28125 -0.2292,0.52864 -0.26061,0.74506 -0.0171,0.95233 0.19141,0.16293 0.43719,-0.0418 0.7358,-0.13983 2.2712,-0.74595 5.74459,-0.76173 8,0 0.31165,0.10526 0.55407,0.30297 0.76705,0.15562 0.2678,-0.18527 0.25121,-0.40288 -0.0483,-0.96812 -0.2595,-0.66929 -0.26456,-1.3264 0.3125,-2.28125 0.0351,-0.0672 0.35374,-0.43725 0.6875,-0.84375 0.96488,-1.11426 0.83981,-2.75109 1,-4.03125 l 0.34375,-2.46748 0.1875,-0.0312 c 0.5555,-0.0694 0.88715,-0.55547 0.71875,-1.0625 -0.0716,-0.21549 -0.20255,-0.349 -0.40625,-0.46875 -0.13321,-0.0783 -0.19114,-0.0937 -0.40625,-0.0937 -0.21511,0 -0.27304,0.0154 -0.40625,0.0937 -0.2037,0.11975 -0.30342,0.25326 -0.375,0.46875 -0.12222,0.36798 0.0374,0.77984 0.375,0.96875 0.039,0.0219 -0.2217,0.41414 -1.25,2.52998 -0.70842,1.45766 -1.27875,2.65286 -1.28125,2.65625 -0.007,0.009 -0.37677,-6.33568 -0.375,-6.4375 10e-4,-0.0761 0.0318,-0.0937 0.15625,-0.125 0.20168,-0.0508 0.41863,-0.21466 0.53125,-0.40625 0.0817,-0.13906 0.0937,-0.18634 0.0937,-0.40625 0,-0.22587 -0.0347,-0.29081 -0.125,-0.4375 -0.33946,-0.55154 -1.09804,-0.55154 -1.4375,0 -0.0905,0.14708 -0.0937,0.20868 -0.0937,0.4375 0,0.22849 0.004,0.29064 0.0937,0.4375 0.0608,0.0992 0.17964,0.18291 0.28125,0.25 l 0.15625,0.125 -1.0625,3.09375 c -0.58624,1.69848 -1.08439,3.09376 -1.09375,3.09375 -0.0117,-1e-5 -1.11165,-6.12481 -1.1875,-6.6231 -0.002,-0.015 0.0553,-0.0379 0.125,-0.0625 0.18634,-0.0658 0.36279,-0.19474 0.46875,-0.375 0.0801,-0.13624 0.0937,-0.21857 0.0937,-0.4375 0,-0.22587 -0.0347,-0.25956 -0.125,-0.40625 -0.21216,-0.34471 -0.56748,-0.49243 -0.90625,-0.40625 z"
         transform="matrix(29.604262,0,0,29.604262,-5074.6836,-3140.8621)"
         id="path2611-5"
         inkscape:connector-curvature="0"
         sodipodi:nodetypes="ccsccccccccsccsscccsccssscccccccsssscccccccsssccscccssccsccccccccsccc" />
      <path
         inkscape:connector-curvature="0"
         d="m 130.5036,361.67419 c 17.2924,-6.48034 34.43631,-11.38498 52.4964,-15.01853 26.36559,-5.30455 37.84015,-6.36264 69,-6.36264 31.15985,-1e-5 42.63441,1.0581 69,6.36264 18.15046,3.65172 35.2157,8.54258 52.80033,15.13242 14.96145,5.60679 19.97479,7.67072 22.77896,2.67475 2.3123,-4.11965 0.55178,-7.81447 -5.04803,-10.59445 C 383.24893,349.7567 356.43256,339.828 339.79396,335.7476 306.8085,327.65834 286.3299,325.19742 252,325.19742 c -15.57227,0 -30.82986,0.53271 -37,1.29183 -34.4439,4.23766 -64.52416,11.49601 -92.74338,22.37889 -10.47919,4.04136 -16.56067,7.57864 -16.56067,11.89697 0,2.66632 4.12469,7.23204 6.53343,7.23204 0.89339,-10e-6 10.93402,-3.57223 18.27422,-6.32297 z"
         transform="translate(520.30873,156.5379)"
         id="path2388-4"
         style="fill:#000000;fill-opacity:1;stroke:#000000;stroke-width:1.04896986;stroke-miterlimit:4;stroke-opacity:1;stroke-dasharray:none"
         sodipodi:nodetypes="csssssssssssccc" />
    </g>
    <g
       style="display:inline"
       transform="matrix(0.03377892,0,0,0.03377892,96.412302,131.36908)"
       id="layer1-4-6-5">
      <path
         style="fill:none;stroke:#000000;stroke-width:0.53149605;stroke-miterlimit:4;stroke-opacity:1;stroke-dasharray:none"
         d="m 197.3125,112.59565 c -0.20326,0.0517 -0.40395,0.19942 -0.53125,0.40625 -0.0903,0.14669 -0.0937,0.18038 -0.0937,0.40625 0,0.21893 0.0137,0.30126 0.0937,0.4375 0.10596,0.18026 0.25116,0.30923 0.4375,0.375 0.0697,0.0246 0.12729,0.0475 0.125,0.0625 -0.0759,0.49829 -1.17578,6.62309 -1.1875,6.6231 -0.009,1e-5 -0.50751,-1.39527 -1.09375,-3.09375 L 194,114.71875 l 0.1875,-0.125 c 0.10161,-0.0671 0.18915,-0.15078 0.25,-0.25 0.0901,-0.14686 0.125,-0.20901 0.125,-0.4375 0,-0.22882 -0.0345,-0.29042 -0.125,-0.4375 -0.33946,-0.55154 -1.09804,-0.55154 -1.4375,0 -0.0903,0.14669 -0.0937,0.21163 -0.0937,0.4375 0,0.21991 0.012,0.26719 0.0937,0.40625 0.11262,0.19159 0.29832,0.35547 0.5,0.40625 0.1244,0.0313 0.15492,0.0489 0.15625,0.125 0.002,0.10182 -0.36807,6.44688 -0.375,6.4375 -0.002,-0.003 -0.57283,-1.19859 -1.28125,-2.65625 -1.0283,-2.11584 -1.28904,-2.50813 -1.25,-2.52998 0.33757,-0.18891 0.49722,-0.60077 0.375,-0.96875 -0.0716,-0.21549 -0.1713,-0.349 -0.375,-0.46875 -0.13321,-0.0783 -0.19114,-0.0937 -0.40625,-0.0937 -0.21511,0 -0.27304,0.0154 -0.40625,0.0937 -0.2037,0.11975 -0.30342,0.25326 -0.375,0.46875 -0.16841,0.50703 0.16325,0.99311 0.71875,1.0625 l 0.1875,0.0312 0.3125,2.46748 c 0.10824,1.46917 0.24178,3.06104 1.03125,4.03125 0.33376,0.4065 0.62111,0.77653 0.65625,0.84375 0.54205,0.99657 0.52327,1.58541 0.3125,2.28125 -0.2292,0.52864 -0.26061,0.74506 -0.0171,0.95233 0.19141,0.16293 0.43719,-0.0418 0.7358,-0.13983 2.2712,-0.74595 5.74459,-0.76173 8,0 0.31165,0.10526 0.55407,0.30297 0.76705,0.15562 0.2678,-0.18527 0.25121,-0.40288 -0.0483,-0.96812 -0.2595,-0.66929 -0.26456,-1.3264 0.3125,-2.28125 0.0351,-0.0672 0.35374,-0.43725 0.6875,-0.84375 0.96488,-1.11426 0.83981,-2.75109 1,-4.03125 l 0.34375,-2.46748 0.1875,-0.0312 c 0.5555,-0.0694 0.88715,-0.55547 0.71875,-1.0625 -0.0716,-0.21549 -0.20255,-0.349 -0.40625,-0.46875 -0.13321,-0.0783 -0.19114,-0.0937 -0.40625,-0.0937 -0.21511,0 -0.27304,0.0154 -0.40625,0.0937 -0.2037,0.11975 -0.30342,0.25326 -0.375,0.46875 -0.12222,0.36798 0.0374,0.77984 0.375,0.96875 0.039,0.0219 -0.2217,0.41414 -1.25,2.52998 -0.70842,1.45766 -1.27875,2.65286 -1.28125,2.65625 -0.007,0.009 -0.37677,-6.33568 -0.375,-6.4375 10e-4,-0.0761 0.0318,-0.0937 0.15625,-0.125 0.20168,-0.0508 0.41863,-0.21466 0.53125,-0.40625 0.0817,-0.13906 0.0937,-0.18634 0.0937,-0.40625 0,-0.22587 -0.0347,-0.29081 -0.125,-0.4375 -0.33946,-0.55154 -1.09804,-0.55154 -1.4375,0 -0.0905,0.14708 -0.0937,0.20868 -0.0937,0.4375 0,0.22849 0.004,0.29064 0.0937,0.4375 0.0608,0.0992 0.17964,0.18291 0.28125,0.25 l 0.15625,0.125 -1.0625,3.09375 c -0.58624,1.69848 -1.08439,3.09376 -1.09375,3.09375 -0.0117,-1e-5 -1.11165,-6.12481 -1.1875,-6.6231 -0.002,-0.015 0.0553,-0.0379 0.125,-0.0625 0.18634,-0.0658 0.36279,-0.19474 0.46875,-0.375 0.0801,-0.13624 0.0937,-0.21857 0.0937,-0.4375 0,-0.22587 -0.0347,-0.25956 -0.125,-0.40625 -0.21216,-0.34471 -0.56748,-0.49243 -0.90625,-0.40625 z"
         transform="matrix(29.604262,0,0,29.604262,-5074.6836,-3140.8621)"
         id="path2611-5-0"
         inkscape:connector-curvature="0"
         sodipodi:nodetypes="ccsccccccccsccsscccsccssscccccccsssscccccccsssccscccssccsccccccccsccc" />
      <path
         inkscape:connector-curvature="0"
         d="m 130.5036,361.67419 c 17.2924,-6.48034 34.43631,-11.38498 52.4964,-15.01853 26.36559,-5.30455 37.84015,-6.36264 69,-6.36264 31.15985,-1e-5 42.63441,1.0581 69,6.36264 18.15046,3.65172 35.2157,8.54258 52.80033,15.13242 14.96145,5.60679 19.97479,7.67072 22.77896,2.67475 2.3123,-4.11965 0.55178,-7.81447 -5.04803,-10.59445 C 383.24893,349.7567 356.43256,339.828 339.79396,335.7476 306.8085,327.65834 286.3299,325.19742 252,325.19742 c -15.57227,0 -30.82986,0.53271 -37,1.29183 -34.4439,4.23766 -64.52416,11.49601 -92.74338,22.37889 -10.47919,4.04136 -16.56067,7.57864 -16.56067,11.89697 0,2.66632 4.12469,7.23204 6.53343,7.23204 0.89339,-10e-6 10.93402,-3.57223 18.27422,-6.32297 z"
         transform="translate(520.30873,156.5379)"
         id="path2388-4-2"
         style="fill:#000000;fill-opacity:1;stroke:#000000;stroke-width:1.04896986;stroke-miterlimit:4;stroke-opacity:1;stroke-dasharray:none"
         sodipodi:nodetypes="csssssssssssccc" />
    </g>
    <g
       style="display:inline"
       transform="matrix(0.03377892,0,0,0.03377892,46.417325,156.32725)"
       id="layer1-4-6-26">
      <path
         style="fill:none;stroke:#000000;stroke-width:0.53149605;stroke-miterlimit:4;stroke-opacity:1;stroke-dasharray:none"
         d="m 197.3125,112.59565 c -0.20326,0.0517 -0.40395,0.19942 -0.53125,0.40625 -0.0903,0.14669 -0.0937,0.18038 -0.0937,0.40625 0,0.21893 0.0137,0.30126 0.0937,0.4375 0.10596,0.18026 0.25116,0.30923 0.4375,0.375 0.0697,0.0246 0.12729,0.0475 0.125,0.0625 -0.0759,0.49829 -1.17578,6.62309 -1.1875,6.6231 -0.009,1e-5 -0.50751,-1.39527 -1.09375,-3.09375 L 194,114.71875 l 0.1875,-0.125 c 0.10161,-0.0671 0.18915,-0.15078 0.25,-0.25 0.0901,-0.14686 0.125,-0.20901 0.125,-0.4375 0,-0.22882 -0.0345,-0.29042 -0.125,-0.4375 -0.33946,-0.55154 -1.09804,-0.55154 -1.4375,0 -0.0903,0.14669 -0.0937,0.21163 -0.0937,0.4375 0,0.21991 0.012,0.26719 0.0937,0.40625 0.11262,0.19159 0.29832,0.35547 0.5,0.40625 0.1244,0.0313 0.15492,0.0489 0.15625,0.125 0.002,0.10182 -0.36807,6.44688 -0.375,6.4375 -0.002,-0.003 -0.57283,-1.19859 -1.28125,-2.65625 -1.0283,-2.11584 -1.28904,-2.50813 -1.25,-2.52998 0.33757,-0.18891 0.49722,-0.60077 0.375,-0.96875 -0.0716,-0.21549 -0.1713,-0.349 -0.375,-0.46875 -0.13321,-0.0783 -0.19114,-0.0937 -0.40625,-0.0937 -0.21511,0 -0.27304,0.0154 -0.40625,0.0937 -0.2037,0.11975 -0.30342,0.25326 -0.375,0.46875 -0.16841,0.50703 0.16325,0.99311 0.71875,1.0625 l 0.1875,0.0312 0.3125,2.46748 c 0.10824,1.46917 0.24178,3.06104 1.03125,4.03125 0.33376,0.4065 0.62111,0.77653 0.65625,0.84375 0.54205,0.99657 0.52327,1.58541 0.3125,2.28125 -0.2292,0.52864 -0.26061,0.74506 -0.0171,0.95233 0.19141,0.16293 0.43719,-0.0418 0.7358,-0.13983 2.2712,-0.74595 5.74459,-0.76173 8,0 0.31165,0.10526 0.55407,0.30297 0.76705,0.15562 0.2678,-0.18527 0.25121,-0.40288 -0.0483,-0.96812 -0.2595,-0.66929 -0.26456,-1.3264 0.3125,-2.28125 0.0351,-0.0672 0.35374,-0.43725 0.6875,-0.84375 0.96488,-1.11426 0.83981,-2.75109 1,-4.03125 l 0.34375,-2.46748 0.1875,-0.0312 c 0.5555,-0.0694 0.88715,-0.55547 0.71875,-1.0625 -0.0716,-0.21549 -0.20255,-0.349 -0.40625,-0.46875 -0.13321,-0.0783 -0.19114,-0.0937 -0.40625,-0.0937 -0.21511,0 -0.27304,0.0154 -0.40625,0.0937 -0.2037,0.11975 -0.30342,0.25326 -0.375,0.46875 -0.12222,0.36798 0.0374,0.77984 0.375,0.96875 0.039,0.0219 -0.2217,0.41414 -1.25,2.52998 -0.70842,1.45766 -1.27875,2.65286 -1.28125,2.65625 -0.007,0.009 -0.37677,-6.33568 -0.375,-6.4375 10e-4,-0.0761 0.0318,-0.0937 0.15625,-0.125 0.20168,-0.0508 0.41863,-0.21466 0.53125,-0.40625 0.0817,-0.13906 0.0937,-0.18634 0.0937,-0.40625 0,-0.22587 -0.0347,-0.29081 -0.125,-0.4375 -0.33946,-0.55154 -1.09804,-0.55154 -1.4375,0 -0.0905,0.14708 -0.0937,0.20868 -0.0937,0.4375 0,0.22849 0.004,0.29064 0.0937,0.4375 0.0608,0.0992 0.17964,0.18291 0.28125,0.25 l 0.15625,0.125 -1.0625,3.09375 c -0.58624,1.69848 -1.08439,3.09376 -1.09375,3.09375 -0.0117,-1e-5 -1.11165,-6.12481 -1.1875,-6.6231 -0.002,-0.015 0.0553,-0.0379 0.125,-0.0625 0.18634,-0.0658 0.36279,-0.19474 0.46875,-0.375 0.0801,-0.13624 0.0937,-0.21857 0.0937,-0.4375 0,-0.22587 -0.0347,-0.25956 -0.125,-0.40625 -0.21216,-0.34471 -0.56748,-0.49243 -0.90625,-0.40625 z"
         transform="matrix(29.604262,0,0,29.604262,-5074.6836,-3140.8621)"
         id="path2611-5-56"
         inkscape:connector-curvature="0"
         sodipodi:nodetypes="ccsccccccccsccsscccsccssscccccccsssscccccccsssccscccssccsccccccccsccc" />
      <path
         inkscape:connector-curvature="0"
         d="m 130.5036,361.67419 c 17.2924,-6.48034 34.43631,-11.38498 52.4964,-15.01853 26.36559,-5.30455 37.84015,-6.36264 69,-6.36264 31.15985,-1e-5 42.63441,1.0581 69,6.36264 18.15046,3.65172 35.2157,8.54258 52.80033,15.13242 14.96145,5.60679 19.97479,7.67072 22.77896,2.67475 2.3123,-4.11965 0.55178,-7.81447 -5.04803,-10.59445 C 383.24893,349.7567 356.43256,339.828 339.79396,335.7476 306.8085,327.65834 286.3299,325.19742 252,325.19742 c -15.57227,0 -30.82986,0.53271 -37,1.29183 -34.4439,4.23766 -64.52416,11.49601 -92.74338,22.37889 -10.47919,4.04136 -16.56067,7.57864 -16.56067,11.89697 0,2.66632 4.12469,7.23204 6.53343,7.23204 0.89339,-10e-6 10.93402,-3.57223 18.27422,-6.32297 z"
         transform="translate(520.30873,156.5379)"
         id="path2388-4-6"
         style="fill:#000000;fill-opacity:1;stroke:#000000;stroke-width:1.04896986;stroke-miterlimit:4;stroke-opacity:1;stroke-dasharray:none"
         sodipodi:nodetypes="csssssssssssccc" />
    </g>
    <g
       style="display:inline"
       transform="matrix(0.03377892,0,0,0.03377892,146.41729,206.32725)"
       id="layer1-4-6-17">
      <path
         style="fill:none;stroke:#000000;stroke-width:0.53149605;stroke-miterlimit:4;stroke-opacity:1;stroke-dasharray:none"
         d="m 197.3125,112.59565 c -0.20326,0.0517 -0.40395,0.19942 -0.53125,0.40625 -0.0903,0.14669 -0.0937,0.18038 -0.0937,0.40625 0,0.21893 0.0137,0.30126 0.0937,0.4375 0.10596,0.18026 0.25116,0.30923 0.4375,0.375 0.0697,0.0246 0.12729,0.0475 0.125,0.0625 -0.0759,0.49829 -1.17578,6.62309 -1.1875,6.6231 -0.009,1e-5 -0.50751,-1.39527 -1.09375,-3.09375 L 194,114.71875 l 0.1875,-0.125 c 0.10161,-0.0671 0.18915,-0.15078 0.25,-0.25 0.0901,-0.14686 0.125,-0.20901 0.125,-0.4375 0,-0.22882 -0.0345,-0.29042 -0.125,-0.4375 -0.33946,-0.55154 -1.09804,-0.55154 -1.4375,0 -0.0903,0.14669 -0.0937,0.21163 -0.0937,0.4375 0,0.21991 0.012,0.26719 0.0937,0.40625 0.11262,0.19159 0.29832,0.35547 0.5,0.40625 0.1244,0.0313 0.15492,0.0489 0.15625,0.125 0.002,0.10182 -0.36807,6.44688 -0.375,6.4375 -0.002,-0.003 -0.57283,-1.19859 -1.28125,-2.65625 -1.0283,-2.11584 -1.28904,-2.50813 -1.25,-2.52998 0.33757,-0.18891 0.49722,-0.60077 0.375,-0.96875 -0.0716,-0.21549 -0.1713,-0.349 -0.375,-0.46875 -0.13321,-0.0783 -0.19114,-0.0937 -0.40625,-0.0937 -0.21511,0 -0.27304,0.0154 -0.40625,0.0937 -0.2037,0.11975 -0.30342,0.25326 -0.375,0.46875 -0.16841,0.50703 0.16325,0.99311 0.71875,1.0625 l 0.1875,0.0312 0.3125,2.46748 c 0.10824,1.46917 0.24178,3.06104 1.03125,4.03125 0.33376,0.4065 0.62111,0.77653 0.65625,0.84375 0.54205,0.99657 0.52327,1.58541 0.3125,2.28125 -0.2292,0.52864 -0.26061,0.74506 -0.0171,0.95233 0.19141,0.16293 0.43719,-0.0418 0.7358,-0.13983 2.2712,-0.74595 5.74459,-0.76173 8,0 0.31165,0.10526 0.55407,0.30297 0.76705,0.15562 0.2678,-0.18527 0.25121,-0.40288 -0.0483,-0.96812 -0.2595,-0.66929 -0.26456,-1.3264 0.3125,-2.28125 0.0351,-0.0672 0.35374,-0.43725 0.6875,-0.84375 0.96488,-1.11426 0.83981,-2.75109 1,-4.03125 l 0.34375,-2.46748 0.1875,-0.0312 c 0.5555,-0.0694 0.88715,-0.55547 0.71875,-1.0625 -0.0716,-0.21549 -0.20255,-0.349 -0.40625,-0.46875 -0.13321,-0.0783 -0.19114,-0.0937 -0.40625,-0.0937 -0.21511,0 -0.27304,0.0154 -0.40625,0.0937 -0.2037,0.11975 -0.30342,0.25326 -0.375,0.46875 -0.12222,0.36798 0.0374,0.77984 0.375,0.96875 0.039,0.0219 -0.2217,0.41414 -1.25,2.52998 -0.70842,1.45766 -1.27875,2.65286 -1.28125,2.65625 -0.007,0.009 -0.37677,-6.33568 -0.375,-6.4375 10e-4,-0.0761 0.0318,-0.0937 0.15625,-0.125 0.20168,-0.0508 0.41863,-0.21466 0.53125,-0.40625 0.0817,-0.13906 0.0937,-0.18634 0.0937,-0.40625 0,-0.22587 -0.0347,-0.29081 -0.125,-0.4375 -0.33946,-0.55154 -1.09804,-0.55154 -1.4375,0 -0.0905,0.14708 -0.0937,0.20868 -0.0937,0.4375 0,0.22849 0.004,0.29064 0.0937,0.4375 0.0608,0.0992 0.17964,0.18291 0.28125,0.25 l 0.15625,0.125 -1.0625,3.09375 c -0.58624,1.69848 -1.08439,3.09376 -1.09375,3.09375 -0.0117,-1e-5 -1.11165,-6.12481 -1.1875,-6.6231 -0.002,-0.015 0.0553,-0.0379 0.125,-0.0625 0.18634,-0.0658 0.36279,-0.19474 0.46875,-0.375 0.0801,-0.13624 0.0937,-0.21857 0.0937,-0.4375 0,-0.22587 -0.0347,-0.25956 -0.125,-0.40625 -0.21216,-0.34471 -0.56748,-0.49243 -0.90625,-0.40625 z"
         transform="matrix(29.604262,0,0,29.604262,-5074.6836,-3140.8621)"
         id="path2611-5-1"
         inkscape:connector-curvature="0"
         sodipodi:nodetypes="ccsccccccccsccsscccsccssscccccccsssscccccccsssccscccssccsccccccccsccc" />
      <path
         inkscape:connector-curvature="0"
         d="m 130.5036,361.67419 c 17.2924,-6.48034 34.43631,-11.38498 52.4964,-15.01853 26.36559,-5.30455 37.84015,-6.36264 69,-6.36264 31.15985,-1e-5 42.63441,1.0581 69,6.36264 18.15046,3.65172 35.2157,8.54258 52.80033,15.13242 14.96145,5.60679 19.97479,7.67072 22.77896,2.67475 2.3123,-4.11965 0.55178,-7.81447 -5.04803,-10.59445 C 383.24893,349.7567 356.43256,339.828 339.79396,335.7476 306.8085,327.65834 286.3299,325.19742 252,325.19742 c -15.57227,0 -30.82986,0.53271 -37,1.29183 -34.4439,4.23766 -64.52416,11.49601 -92.74338,22.37889 -10.47919,4.04136 -16.56067,7.57864 -16.56067,11.89697 0,2.66632 4.12469,7.23204 6.53343,7.23204 0.89339,-10e-6 10.93402,-3.57223 18.27422,-6.32297 z"
         transform="translate(520.30873,156.5379)"
         id="path2388-4-3"
         style="fill:#000000;fill-opacity:1;stroke:#000000;stroke-width:1.04896986;stroke-miterlimit:4;stroke-opacity:1;stroke-dasharray:none"
         sodipodi:nodetypes="csssssssssssccc" />
    </g>
    <g
       style="display:inline"
       transform="matrix(0.03377892,0,0,0.03377892,196.40721,181.33733)"
       id="layer1-4-6-8">
      <path
         style="fill:none;stroke:#000000;stroke-width:0.53149605;stroke-miterlimit:4;stroke-opacity:1;stroke-dasharray:none"
         d="m 197.3125,112.59565 c -0.20326,0.0517 -0.40395,0.19942 -0.53125,0.40625 -0.0903,0.14669 -0.0937,0.18038 -0.0937,0.40625 0,0.21893 0.0137,0.30126 0.0937,0.4375 0.10596,0.18026 0.25116,0.30923 0.4375,0.375 0.0697,0.0246 0.12729,0.0475 0.125,0.0625 -0.0759,0.49829 -1.17578,6.62309 -1.1875,6.6231 -0.009,1e-5 -0.50751,-1.39527 -1.09375,-3.09375 L 194,114.71875 l 0.1875,-0.125 c 0.10161,-0.0671 0.18915,-0.15078 0.25,-0.25 0.0901,-0.14686 0.125,-0.20901 0.125,-0.4375 0,-0.22882 -0.0345,-0.29042 -0.125,-0.4375 -0.33946,-0.55154 -1.09804,-0.55154 -1.4375,0 -0.0903,0.14669 -0.0937,0.21163 -0.0937,0.4375 0,0.21991 0.012,0.26719 0.0937,0.40625 0.11262,0.19159 0.29832,0.35547 0.5,0.40625 0.1244,0.0313 0.15492,0.0489 0.15625,0.125 0.002,0.10182 -0.36807,6.44688 -0.375,6.4375 -0.002,-0.003 -0.57283,-1.19859 -1.28125,-2.65625 -1.0283,-2.11584 -1.28904,-2.50813 -1.25,-2.52998 0.33757,-0.18891 0.49722,-0.60077 0.375,-0.96875 -0.0716,-0.21549 -0.1713,-0.349 -0.375,-0.46875 -0.13321,-0.0783 -0.19114,-0.0937 -0.40625,-0.0937 -0.21511,0 -0.27304,0.0154 -0.40625,0.0937 -0.2037,0.11975 -0.30342,0.25326 -0.375,0.46875 -0.16841,0.50703 0.16325,0.99311 0.71875,1.0625 l 0.1875,0.0312 0.3125,2.46748 c 0.10824,1.46917 0.24178,3.06104 1.03125,4.03125 0.33376,0.4065 0.62111,0.77653 0.65625,0.84375 0.54205,0.99657 0.52327,1.58541 0.3125,2.28125 -0.2292,0.52864 -0.26061,0.74506 -0.0171,0.95233 0.19141,0.16293 0.43719,-0.0418 0.7358,-0.13983 2.2712,-0.74595 5.74459,-0.76173 8,0 0.31165,0.10526 0.55407,0.30297 0.76705,0.15562 0.2678,-0.18527 0.25121,-0.40288 -0.0483,-0.96812 -0.2595,-0.66929 -0.26456,-1.3264 0.3125,-2.28125 0.0351,-0.0672 0.35374,-0.43725 0.6875,-0.84375 0.96488,-1.11426 0.83981,-2.75109 1,-4.03125 l 0.34375,-2.46748 0.1875,-0.0312 c 0.5555,-0.0694 0.88715,-0.55547 0.71875,-1.0625 -0.0716,-0.21549 -0.20255,-0.349 -0.40625,-0.46875 -0.13321,-0.0783 -0.19114,-0.0937 -0.40625,-0.0937 -0.21511,0 -0.27304,0.0154 -0.40625,0.0937 -0.2037,0.11975 -0.30342,0.25326 -0.375,0.46875 -0.12222,0.36798 0.0374,0.77984 0.375,0.96875 0.039,0.0219 -0.2217,0.41414 -1.25,2.52998 -0.70842,1.45766 -1.27875,2.65286 -1.28125,2.65625 -0.007,0.009 -0.37677,-6.33568 -0.375,-6.4375 10e-4,-0.0761 0.0318,-0.0937 0.15625,-0.125 0.20168,-0.0508 0.41863,-0.21466 0.53125,-0.40625 0.0817,-0.13906 0.0937,-0.18634 0.0937,-0.40625 0,-0.22587 -0.0347,-0.29081 -0.125,-0.4375 -0.33946,-0.55154 -1.09804,-0.55154 -1.4375,0 -0.0905,0.14708 -0.0937,0.20868 -0.0937,0.4375 0,0.22849 0.004,0.29064 0.0937,0.4375 0.0608,0.0992 0.17964,0.18291 0.28125,0.25 l 0.15625,0.125 -1.0625,3.09375 c -0.58624,1.69848 -1.08439,3.09376 -1.09375,3.09375 -0.0117,-1e-5 -1.11165,-6.12481 -1.1875,-6.6231 -0.002,-0.015 0.0553,-0.0379 0.125,-0.0625 0.18634,-0.0658 0.36279,-0.19474 0.46875,-0.375 0.0801,-0.13624 0.0937,-0.21857 0.0937,-0.4375 0,-0.22587 -0.0347,-0.25956 -0.125,-0.40625 -0.21216,-0.34471 -0.56748,-0.49243 -0.90625,-0.40625 z"
         transform="matrix(29.604262,0,0,29.604262,-5074.6836,-3140.8621)"
         id="path2611-5-29"
         inkscape:connector-curvature="0"
         sodipodi:nodetypes="ccsccccccccsccsscccsccssscccccccsssscccccccsssccscccssccsccccccccsccc" />
      <path
         inkscape:connector-curvature="0"
         d="m 130.5036,361.67419 c 17.2924,-6.48034 34.43631,-11.38498 52.4964,-15.01853 26.36559,-5.30455 37.84015,-6.36264 69,-6.36264 31.15985,-1e-5 42.63441,1.0581 69,6.36264 18.15046,3.65172 35.2157,8.54258 52.80033,15.13242 14.96145,5.60679 19.97479,7.67072 22.77896,2.67475 2.3123,-4.11965 0.55178,-7.81447 -5.04803,-10.59445 C 383.24893,349.7567 356.43256,339.828 339.79396,335.7476 306.8085,327.65834 286.3299,325.19742 252,325.19742 c -15.57227,0 -30.82986,0.53271 -37,1.29183 -34.4439,4.23766 -64.52416,11.49601 -92.74338,22.37889 -10.47919,4.04136 -16.56067,7.57864 -16.56067,11.89697 0,2.66632 4.12469,7.23204 6.53343,7.23204 0.89339,-10e-6 10.93402,-3.57223 18.27422,-6.32297 z"
         transform="translate(520.30873,156.5379)"
         id="path2388-4-0"
         style="fill:#000000;fill-opacity:1;stroke:#000000;stroke-width:1.04896986;stroke-miterlimit:4;stroke-opacity:1;stroke-dasharray:none"
         sodipodi:nodetypes="csssssssssssccc" />
    </g>
    <g
       style="display:inline"
       transform="matrix(0.03377892,0,0,0.03377892,221.42242,231.36908)"
       id="layer1-4-6-10">
      <path
         style="fill:none;stroke:#000000;stroke-width:0.53149605;stroke-miterlimit:4;stroke-opacity:1;stroke-dasharray:none"
         d="m 197.3125,112.59565 c -0.20326,0.0517 -0.40395,0.19942 -0.53125,0.40625 -0.0903,0.14669 -0.0937,0.18038 -0.0937,0.40625 0,0.21893 0.0137,0.30126 0.0937,0.4375 0.10596,0.18026 0.25116,0.30923 0.4375,0.375 0.0697,0.0246 0.12729,0.0475 0.125,0.0625 -0.0759,0.49829 -1.17578,6.62309 -1.1875,6.6231 -0.009,1e-5 -0.50751,-1.39527 -1.09375,-3.09375 L 194,114.71875 l 0.1875,-0.125 c 0.10161,-0.0671 0.18915,-0.15078 0.25,-0.25 0.0901,-0.14686 0.125,-0.20901 0.125,-0.4375 0,-0.22882 -0.0345,-0.29042 -0.125,-0.4375 -0.33946,-0.55154 -1.09804,-0.55154 -1.4375,0 -0.0903,0.14669 -0.0937,0.21163 -0.0937,0.4375 0,0.21991 0.012,0.26719 0.0937,0.40625 0.11262,0.19159 0.29832,0.35547 0.5,0.40625 0.1244,0.0313 0.15492,0.0489 0.15625,0.125 0.002,0.10182 -0.36807,6.44688 -0.375,6.4375 -0.002,-0.003 -0.57283,-1.19859 -1.28125,-2.65625 -1.0283,-2.11584 -1.28904,-2.50813 -1.25,-2.52998 0.33757,-0.18891 0.49722,-0.60077 0.375,-0.96875 -0.0716,-0.21549 -0.1713,-0.349 -0.375,-0.46875 -0.13321,-0.0783 -0.19114,-0.0937 -0.40625,-0.0937 -0.21511,0 -0.27304,0.0154 -0.40625,0.0937 -0.2037,0.11975 -0.30342,0.25326 -0.375,0.46875 -0.16841,0.50703 0.16325,0.99311 0.71875,1.0625 l 0.1875,0.0312 0.3125,2.46748 c 0.10824,1.46917 0.24178,3.06104 1.03125,4.03125 0.33376,0.4065 0.62111,0.77653 0.65625,0.84375 0.54205,0.99657 0.52327,1.58541 0.3125,2.28125 -0.2292,0.52864 -0.26061,0.74506 -0.0171,0.95233 0.19141,0.16293 0.43719,-0.0418 0.7358,-0.13983 2.2712,-0.74595 5.74459,-0.76173 8,0 0.31165,0.10526 0.55407,0.30297 0.76705,0.15562 0.2678,-0.18527 0.25121,-0.40288 -0.0483,-0.96812 -0.2595,-0.66929 -0.26456,-1.3264 0.3125,-2.28125 0.0351,-0.0672 0.35374,-0.43725 0.6875,-0.84375 0.96488,-1.11426 0.83981,-2.75109 1,-4.03125 l 0.34375,-2.46748 0.1875,-0.0312 c 0.5555,-0.0694 0.88715,-0.55547 0.71875,-1.0625 -0.0716,-0.21549 -0.20255,-0.349 -0.40625,-0.46875 -0.13321,-0.0783 -0.19114,-0.0937 -0.40625,-0.0937 -0.21511,0 -0.27304,0.0154 -0.40625,0.0937 -0.2037,0.11975 -0.30342,0.25326 -0.375,0.46875 -0.12222,0.36798 0.0374,0.77984 0.375,0.96875 0.039,0.0219 -0.2217,0.41414 -1.25,2.52998 -0.70842,1.45766 -1.27875,2.65286 -1.28125,2.65625 -0.007,0.009 -0.37677,-6.33568 -0.375,-6.4375 10e-4,-0.0761 0.0318,-0.0937 0.15625,-0.125 0.20168,-0.0508 0.41863,-0.21466 0.53125,-0.40625 0.0817,-0.13906 0.0937,-0.18634 0.0937,-0.40625 0,-0.22587 -0.0347,-0.29081 -0.125,-0.4375 -0.33946,-0.55154 -1.09804,-0.55154 -1.4375,0 -0.0905,0.14708 -0.0937,0.20868 -0.0937,0.4375 0,0.22849 0.004,0.29064 0.0937,0.4375 0.0608,0.0992 0.17964,0.18291 0.28125,0.25 l 0.15625,0.125 -1.0625,3.09375 c -0.58624,1.69848 -1.08439,3.09376 -1.09375,3.09375 -0.0117,-1e-5 -1.11165,-6.12481 -1.1875,-6.6231 -0.002,-0.015 0.0553,-0.0379 0.125,-0.0625 0.18634,-0.0658 0.36279,-0.19474 0.46875,-0.375 0.0801,-0.13624 0.0937,-0.21857 0.0937,-0.4375 0,-0.22587 -0.0347,-0.25956 -0.125,-0.40625 -0.21216,-0.34471 -0.56748,-0.49243 -0.90625,-0.40625 z"
         transform="matrix(29.604262,0,0,29.604262,-5074.6836,-3140.8621)"
         id="path2611-5-81"
         inkscape:connector-curvature="0"
         sodipodi:nodetypes="ccsccccccccsccsscccsccssscccccccsssscccccccsssccscccssccsccccccccsccc" />
      <path
         inkscape:connector-curvature="0"
         d="m 130.5036,361.67419 c 17.2924,-6.48034 34.43631,-11.38498 52.4964,-15.01853 26.36559,-5.30455 37.84015,-6.36264 69,-6.36264 31.15985,-1e-5 42.63441,1.0581 69,6.36264 18.15046,3.65172 35.2157,8.54258 52.80033,15.13242 14.96145,5.60679 19.97479,7.67072 22.77896,2.67475 2.3123,-4.11965 0.55178,-7.81447 -5.04803,-10.59445 C 383.24893,349.7567 356.43256,339.828 339.79396,335.7476 306.8085,327.65834 286.3299,325.19742 252,325.19742 c -15.57227,0 -30.82986,0.53271 -37,1.29183 -34.4439,4.23766 -64.52416,11.49601 -92.74338,22.37889 -10.47919,4.04136 -16.56067,7.57864 -16.56067,11.89697 0,2.66632 4.12469,7.23204 6.53343,7.23204 0.89339,-10e-6 10.93402,-3.57223 18.27422,-6.32297 z"
         transform="translate(520.30873,156.5379)"
         id="path2388-4-67"
         style="fill:#000000;fill-opacity:1;stroke:#000000;stroke-width:1.04896986;stroke-miterlimit:4;stroke-opacity:1;stroke-dasharray:none"
         sodipodi:nodetypes="csssssssssssccc" />
    </g>
    <g
       style="display:inline"
       transform="matrix(0.03377892,0,0,0.03377892,71.417325,256.32725)"
       id="layer1-4-6-88">
      <path
         style="fill:none;stroke:#000000;stroke-width:0.53149605;stroke-miterlimit:4;stroke-opacity:1;stroke-dasharray:none"
         d="m 197.3125,112.59565 c -0.20326,0.0517 -0.40395,0.19942 -0.53125,0.40625 -0.0903,0.14669 -0.0937,0.18038 -0.0937,0.40625 0,0.21893 0.0137,0.30126 0.0937,0.4375 0.10596,0.18026 0.25116,0.30923 0.4375,0.375 0.0697,0.0246 0.12729,0.0475 0.125,0.0625 -0.0759,0.49829 -1.17578,6.62309 -1.1875,6.6231 -0.009,1e-5 -0.50751,-1.39527 -1.09375,-3.09375 L 194,114.71875 l 0.1875,-0.125 c 0.10161,-0.0671 0.18915,-0.15078 0.25,-0.25 0.0901,-0.14686 0.125,-0.20901 0.125,-0.4375 0,-0.22882 -0.0345,-0.29042 -0.125,-0.4375 -0.33946,-0.55154 -1.09804,-0.55154 -1.4375,0 -0.0903,0.14669 -0.0937,0.21163 -0.0937,0.4375 0,0.21991 0.012,0.26719 0.0937,0.40625 0.11262,0.19159 0.29832,0.35547 0.5,0.40625 0.1244,0.0313 0.15492,0.0489 0.15625,0.125 0.002,0.10182 -0.36807,6.44688 -0.375,6.4375 -0.002,-0.003 -0.57283,-1.19859 -1.28125,-2.65625 -1.0283,-2.11584 -1.28904,-2.50813 -1.25,-2.52998 0.33757,-0.18891 0.49722,-0.60077 0.375,-0.96875 -0.0716,-0.21549 -0.1713,-0.349 -0.375,-0.46875 -0.13321,-0.0783 -0.19114,-0.0937 -0.40625,-0.0937 -0.21511,0 -0.27304,0.0154 -0.40625,0.0937 -0.2037,0.11975 -0.30342,0.25326 -0.375,0.46875 -0.16841,0.50703 0.16325,0.99311 0.71875,1.0625 l 0.1875,0.0312 0.3125,2.46748 c 0.10824,1.46917 0.24178,3.06104 1.03125,4.03125 0.33376,0.4065 0.62111,0.77653 0.65625,0.84375 0.54205,0.99657 0.52327,1.58541 0.3125,2.28125 -0.2292,0.52864 -0.26061,0.74506 -0.0171,0.95233 0.19141,0.16293 0.43719,-0.0418 0.7358,-0.13983 2.2712,-0.74595 5.74459,-0.76173 8,0 0.31165,0.10526 0.55407,0.30297 0.76705,0.15562 0.2678,-0.18527 0.25121,-0.40288 -0.0483,-0.96812 -0.2595,-0.66929 -0.26456,-1.3264 0.3125,-2.28125 0.0351,-0.0672 0.35374,-0.43725 0.6875,-0.84375 0.96488,-1.11426 0.83981,-2.75109 1,-4.03125 l 0.34375,-2.46748 0.1875,-0.0312 c 0.5555,-0.0694 0.88715,-0.55547 0.71875,-1.0625 -0.0716,-0.21549 -0.20255,-0.349 -0.40625,-0.46875 -0.13321,-0.0783 -0.19114,-0.0937 -0.40625,-0.0937 -0.21511,0 -0.27304,0.0154 -0.40625,0.0937 -0.2037,0.11975 -0.30342,0.25326 -0.375,0.46875 -0.12222,0.36798 0.0374,0.77984 0.375,0.96875 0.039,0.0219 -0.2217,0.41414 -1.25,2.52998 -0.70842,1.45766 -1.27875,2.65286 -1.28125,2.65625 -0.007,0.009 -0.37677,-6.33568 -0.375,-6.4375 10e-4,-0.0761 0.0318,-0.0937 0.15625,-0.125 0.20168,-0.0508 0.41863,-0.21466 0.53125,-0.40625 0.0817,-0.13906 0.0937,-0.18634 0.0937,-0.40625 0,-0.22587 -0.0347,-0.29081 -0.125,-0.4375 -0.33946,-0.55154 -1.09804,-0.55154 -1.4375,0 -0.0905,0.14708 -0.0937,0.20868 -0.0937,0.4375 0,0.22849 0.004,0.29064 0.0937,0.4375 0.0608,0.0992 0.17964,0.18291 0.28125,0.25 l 0.15625,0.125 -1.0625,3.09375 c -0.58624,1.69848 -1.08439,3.09376 -1.09375,3.09375 -0.0117,-1e-5 -1.11165,-6.12481 -1.1875,-6.6231 -0.002,-0.015 0.0553,-0.0379 0.125,-0.0625 0.18634,-0.0658 0.36279,-0.19474 0.46875,-0.375 0.0801,-0.13624 0.0937,-0.21857 0.0937,-0.4375 0,-0.22587 -0.0347,-0.25956 -0.125,-0.40625 -0.21216,-0.34471 -0.56748,-0.49243 -0.90625,-0.40625 z"
         transform="matrix(29.604262,0,0,29.604262,-5074.6836,-3140.8621)"
         id="path2611-5-21"
         inkscape:connector-curvature="0"
         sodipodi:nodetypes="ccsccccccccsccsscccsccssscccccccsssscccccccsssccscccssccsccccccccsccc" />
      <path
         inkscape:connector-curvature="0"
         d="m 130.5036,361.67419 c 17.2924,-6.48034 34.43631,-11.38498 52.4964,-15.01853 26.36559,-5.30455 37.84015,-6.36264 69,-6.36264 31.15985,-1e-5 42.63441,1.0581 69,6.36264 18.15046,3.65172 35.2157,8.54258 52.80033,15.13242 14.96145,5.60679 19.97479,7.67072 22.77896,2.67475 2.3123,-4.11965 0.55178,-7.81447 -5.04803,-10.59445 C 383.24893,349.7567 356.43256,339.828 339.79396,335.7476 306.8085,327.65834 286.3299,325.19742 252,325.19742 c -15.57227,0 -30.82986,0.53271 -37,1.29183 -34.4439,4.23766 -64.52416,11.49601 -92.74338,22.37889 -10.47919,4.04136 -16.56067,7.57864 -16.56067,11.89697 0,2.66632 4.12469,7.23204 6.53343,7.23204 0.89339,-10e-6 10.93402,-3.57223 18.27422,-6.32297 z"
         transform="translate(520.30873,156.5379)"
         id="path2388-4-38"
         style="fill:#000000;fill-opacity:1;stroke:#000000;stroke-width:1.04896986;stroke-miterlimit:4;stroke-opacity:1;stroke-dasharray:none"
         sodipodi:nodetypes="csssssssssssccc" />
    </g>
    <g
       style="display:inline"
       transform="matrix(0.03377892,0,0,0.03377892,121.40721,281.32725)"
       id="layer1-4-6-93">
      <path
         style="fill:none;stroke:#000000;stroke-width:0.53149605;stroke-miterlimit:4;stroke-opacity:1;stroke-dasharray:none"
         d="m 197.3125,112.59565 c -0.20326,0.0517 -0.40395,0.19942 -0.53125,0.40625 -0.0903,0.14669 -0.0937,0.18038 -0.0937,0.40625 0,0.21893 0.0137,0.30126 0.0937,0.4375 0.10596,0.18026 0.25116,0.30923 0.4375,0.375 0.0697,0.0246 0.12729,0.0475 0.125,0.0625 -0.0759,0.49829 -1.17578,6.62309 -1.1875,6.6231 -0.009,1e-5 -0.50751,-1.39527 -1.09375,-3.09375 L 194,114.71875 l 0.1875,-0.125 c 0.10161,-0.0671 0.18915,-0.15078 0.25,-0.25 0.0901,-0.14686 0.125,-0.20901 0.125,-0.4375 0,-0.22882 -0.0345,-0.29042 -0.125,-0.4375 -0.33946,-0.55154 -1.09804,-0.55154 -1.4375,0 -0.0903,0.14669 -0.0937,0.21163 -0.0937,0.4375 0,0.21991 0.012,0.26719 0.0937,0.40625 0.11262,0.19159 0.29832,0.35547 0.5,0.40625 0.1244,0.0313 0.15492,0.0489 0.15625,0.125 0.002,0.10182 -0.36807,6.44688 -0.375,6.4375 -0.002,-0.003 -0.57283,-1.19859 -1.28125,-2.65625 -1.0283,-2.11584 -1.28904,-2.50813 -1.25,-2.52998 0.33757,-0.18891 0.49722,-0.60077 0.375,-0.96875 -0.0716,-0.21549 -0.1713,-0.349 -0.375,-0.46875 -0.13321,-0.0783 -0.19114,-0.0937 -0.40625,-0.0937 -0.21511,0 -0.27304,0.0154 -0.40625,0.0937 -0.2037,0.11975 -0.30342,0.25326 -0.375,0.46875 -0.16841,0.50703 0.16325,0.99311 0.71875,1.0625 l 0.1875,0.0312 0.3125,2.46748 c 0.10824,1.46917 0.24178,3.06104 1.03125,4.03125 0.33376,0.4065 0.62111,0.77653 0.65625,0.84375 0.54205,0.99657 0.52327,1.58541 0.3125,2.28125 -0.2292,0.52864 -0.26061,0.74506 -0.0171,0.95233 0.19141,0.16293 0.43719,-0.0418 0.7358,-0.13983 2.2712,-0.74595 5.74459,-0.76173 8,0 0.31165,0.10526 0.55407,0.30297 0.76705,0.15562 0.2678,-0.18527 0.25121,-0.40288 -0.0483,-0.96812 -0.2595,-0.66929 -0.26456,-1.3264 0.3125,-2.28125 0.0351,-0.0672 0.35374,-0.43725 0.6875,-0.84375 0.96488,-1.11426 0.83981,-2.75109 1,-4.03125 l 0.34375,-2.46748 0.1875,-0.0312 c 0.5555,-0.0694 0.88715,-0.55547 0.71875,-1.0625 -0.0716,-0.21549 -0.20255,-0.349 -0.40625,-0.46875 -0.13321,-0.0783 -0.19114,-0.0937 -0.40625,-0.0937 -0.21511,0 -0.27304,0.0154 -0.40625,0.0937 -0.2037,0.11975 -0.30342,0.25326 -0.375,0.46875 -0.12222,0.36798 0.0374,0.77984 0.375,0.96875 0.039,0.0219 -0.2217,0.41414 -1.25,2.52998 -0.70842,1.45766 -1.27875,2.65286 -1.28125,2.65625 -0.007,0.009 -0.37677,-6.33568 -0.375,-6.4375 10e-4,-0.0761 0.0318,-0.0937 0.15625,-0.125 0.20168,-0.0508 0.41863,-0.21466 0.53125,-0.40625 0.0817,-0.13906 0.0937,-0.18634 0.0937,-0.40625 0,-0.22587 -0.0347,-0.29081 -0.125,-0.4375 -0.33946,-0.55154 -1.09804,-0.55154 -1.4375,0 -0.0905,0.14708 -0.0937,0.20868 -0.0937,0.4375 0,0.22849 0.004,0.29064 0.0937,0.4375 0.0608,0.0992 0.17964,0.18291 0.28125,0.25 l 0.15625,0.125 -1.0625,3.09375 c -0.58624,1.69848 -1.08439,3.09376 -1.09375,3.09375 -0.0117,-1e-5 -1.11165,-6.12481 -1.1875,-6.6231 -0.002,-0.015 0.0553,-0.0379 0.125,-0.0625 0.18634,-0.0658 0.36279,-0.19474 0.46875,-0.375 0.0801,-0.13624 0.0937,-0.21857 0.0937,-0.4375 0,-0.22587 -0.0347,-0.25956 -0.125,-0.40625 -0.21216,-0.34471 -0.56748,-0.49243 -0.90625,-0.40625 z"
         transform="matrix(29.604262,0,0,29.604262,-5074.6836,-3140.8621)"
         id="path2611-5-541"
         inkscape:connector-curvature="0"
         sodipodi:nodetypes="ccsccccccccsccsscccsccssscccccccsssscccccccsssccscccssccsccccccccsccc" />
      <path
         inkscape:connector-curvature="0"
         d="m 130.5036,361.67419 c 17.2924,-6.48034 34.43631,-11.38498 52.4964,-15.01853 26.36559,-5.30455 37.84015,-6.36264 69,-6.36264 31.15985,-1e-5 42.63441,1.0581 69,6.36264 18.15046,3.65172 35.2157,8.54258 52.80033,15.13242 14.96145,5.60679 19.97479,7.67072 22.77896,2.67475 2.3123,-4.11965 0.55178,-7.81447 -5.04803,-10.59445 C 383.24893,349.7567 356.43256,339.828 339.79396,335.7476 306.8085,327.65834 286.3299,325.19742 252,325.19742 c -15.57227,0 -30.82986,0.53271 -37,1.29183 -34.4439,4.23766 -64.52416,11.49601 -92.74338,22.37889 -10.47919,4.04136 -16.56067,7.57864 -16.56067,11.89697 0,2.66632 4.12469,7.23204 6.53343,7.23204 0.89339,-10e-6 10.93402,-3.57223 18.27422,-6.32297 z"
         transform="translate(520.30873,156.5379)"
         id="path2388-4-22"
         style="fill:#000000;fill-opacity:1;stroke:#000000;stroke-width:1.04896986;stroke-miterlimit:4;stroke-opacity:1;stroke-dasharray:none"
         sodipodi:nodetypes="csssssssssssccc" />
    </g>
  </g>
</svg>
