<?xml version="1.0" encoding="UTF-8" standalone="no"?>
<!-- Created with Inkscape (http://www.inkscape.org/) -->

<svg
   xmlns:dc="http://purl.org/dc/elements/1.1/"
   xmlns:cc="http://creativecommons.org/ns#"
   xmlns:rdf="http://www.w3.org/1999/02/22-rdf-syntax-ns#"
   xmlns:svg="http://www.w3.org/2000/svg"
   xmlns="http://www.w3.org/2000/svg"
   xmlns:sodipodi="http://sodipodi.sourceforge.net/DTD/sodipodi-0.dtd"
   xmlns:inkscape="http://www.inkscape.org/namespaces/inkscape"
   width="744.09448"
   height="1052.3622"
   id="svg2"
   version="1.1"
   inkscape:version="0.48.0 r9654"
   sodipodi:docname="Fig3.30b.svg"
   style="display:inline">
  <defs
     id="defs4">
    <marker
       inkscape:stockid="Arrow1Mstart"
       orient="auto"
       refY="0"
       refX="0"
       id="Arrow1Mstart"
       style="overflow:visible">
      <path
         id="path4412"
         d="M 0,0 5,-5 -12.5,0 5,5 0,0 z"
         style="fill-rule:evenodd;stroke:#000000;stroke-width:1pt;marker-start:none"
         transform="matrix(0.4,0,0,0.4,4,0)"
         inkscape:connector-curvature="0" />
    </marker>
    <marker
       inkscape:stockid="Arrow1Mend"
       orient="auto"
       refY="0"
       refX="0"
       id="Arrow1Mend"
       style="overflow:visible">
      <path
         id="path4415"
         d="M 0,0 5,-5 -12.5,0 5,5 0,0 z"
         style="fill-rule:evenodd;stroke:#000000;stroke-width:1pt;marker-start:none"
         transform="matrix(-0.4,0,0,-0.4,-4,0)"
         inkscape:connector-curvature="0" />
    </marker>
    <marker
       inkscape:stockid="Arrow1Lend"
       orient="auto"
       refY="0"
       refX="0"
       id="Arrow1Lend"
       style="overflow:visible">
      <path
         inkscape:connector-curvature="0"
         id="path4220"
         d="M 0,0 5,-5 -12.5,0 5,5 0,0 z"
         style="fill-rule:evenodd;stroke:#000000;stroke-width:1pt;marker-start:none"
         transform="matrix(-0.8,0,0,-0.8,-10,0)" />
    </marker>
    <marker
       inkscape:stockid="Arrow1Mend"
       orient="auto"
       refY="0"
       refX="0"
       id="Arrow1Mend-6"
       style="overflow:visible">
      <path
         inkscape:connector-curvature="0"
         id="path4415-1"
         d="M 0,0 5,-5 -12.5,0 5,5 0,0 z"
         style="fill-rule:evenodd;stroke:#000000;stroke-width:1pt;marker-start:none"
         transform="matrix(-0.4,0,0,-0.4,-4,0)" />
    </marker>
    <marker
       inkscape:stockid="Arrow1Mend"
       orient="auto"
       refY="0"
       refX="0"
       id="Arrow1Mend-2"
       style="overflow:visible">
      <path
         inkscape:connector-curvature="0"
         id="path4415-4"
         d="M 0,0 5,-5 -12.5,0 5,5 0,0 z"
         style="fill-rule:evenodd;stroke:#000000;stroke-width:1pt;marker-start:none"
         transform="matrix(-0.4,0,0,-0.4,-4,0)" />
    </marker>
    <marker
       inkscape:stockid="Arrow1Mstart"
       orient="auto"
       refY="0"
       refX="0"
       id="Arrow1Mstart-8"
       style="overflow:visible">
      <path
         inkscape:connector-curvature="0"
         id="path4412-3"
         d="M 0,0 5,-5 -12.5,0 5,5 0,0 z"
         style="fill-rule:evenodd;stroke:#000000;stroke-width:1pt;marker-start:none"
         transform="matrix(0.4,0,0,0.4,4,0)" />
    </marker>
    <marker
       inkscape:stockid="Arrow1Mend"
       orient="auto"
       refY="0"
       refX="0"
       id="Arrow1Mend-4"
       style="overflow:visible">
      <path
         inkscape:connector-curvature="0"
         id="path4415-18"
         d="M 0,0 5,-5 -12.5,0 5,5 0,0 z"
         style="fill-rule:evenodd;stroke:#000000;stroke-width:1pt;marker-start:none"
         transform="matrix(-0.4,0,0,-0.4,-4,0)" />
    </marker>
    <marker
       inkscape:stockid="Arrow1Mend"
       orient="auto"
       refY="0"
       refX="0"
       id="marker5313"
       style="overflow:visible">
      <path
         inkscape:connector-curvature="0"
         id="path5315"
         d="M 0,0 5,-5 -12.5,0 5,5 0,0 z"
         style="fill-rule:evenodd;stroke:#000000;stroke-width:1pt;marker-start:none"
         transform="matrix(-0.4,0,0,-0.4,-4,0)" />
    </marker>
    <marker
       inkscape:stockid="Arrow1Mstart"
       orient="auto"
       refY="0"
       refX="0"
       id="Arrow1Mstart-2"
       style="overflow:visible">
      <path
         inkscape:connector-curvature="0"
         id="path4412-0"
         d="M 0,0 5,-5 -12.5,0 5,5 0,0 z"
         style="fill-rule:evenodd;stroke:#000000;stroke-width:1pt;marker-start:none"
         transform="matrix(0.4,0,0,0.4,4,0)" />
    </marker>
    <marker
       inkscape:stockid="Arrow1Mstart"
       orient="auto"
       refY="0"
       refX="0"
       id="marker5348"
       style="overflow:visible">
      <path
         inkscape:connector-curvature="0"
         id="path5350"
         d="M 0,0 5,-5 -12.5,0 5,5 0,0 z"
         style="fill-rule:evenodd;stroke:#000000;stroke-width:1pt;marker-start:none"
         transform="matrix(0.4,0,0,0.4,4,0)" />
    </marker>
    <marker
       inkscape:stockid="Arrow1Mstart"
       orient="auto"
       refY="0"
       refX="0"
       id="Arrow1Mstart-81"
       style="overflow:visible">
      <path
         inkscape:connector-curvature="0"
         id="path4412-4"
         d="M 0,0 5,-5 -12.5,0 5,5 0,0 z"
         style="fill-rule:evenodd;stroke:#000000;stroke-width:1pt;marker-start:none"
         transform="matrix(0.4,0,0,0.4,4,0)" />
    </marker>
    <marker
       inkscape:stockid="Arrow1Mstart"
       orient="auto"
       refY="0"
       refX="0"
       id="marker5348-1"
       style="overflow:visible">
      <path
         inkscape:connector-curvature="0"
         id="path5350-5"
         d="M 0,0 5,-5 -12.5,0 5,5 0,0 z"
         style="fill-rule:evenodd;stroke:#000000;stroke-width:1pt;marker-start:none"
         transform="matrix(0.4,0,0,0.4,4,0)" />
    </marker>
    <marker
       inkscape:stockid="Arrow1Mend"
       orient="auto"
       refY="0"
       refX="0"
       id="Arrow1Mend-49"
       style="overflow:visible">
      <path
         inkscape:connector-curvature="0"
         id="path4415-7"
         d="M 0,0 5,-5 -12.5,0 5,5 0,0 z"
         style="fill-rule:evenodd;stroke:#000000;stroke-width:1pt;marker-start:none"
         transform="matrix(-0.4,0,0,-0.4,-4,0)" />
    </marker>
    <marker
       inkscape:stockid="Arrow1Mend"
       orient="auto"
       refY="0"
       refX="0"
       id="marker5400"
       style="overflow:visible">
      <path
         inkscape:connector-curvature="0"
         id="path5402"
         d="M 0,0 5,-5 -12.5,0 5,5 0,0 z"
         style="fill-rule:evenodd;stroke:#000000;stroke-width:1pt;marker-start:none"
         transform="matrix(-0.4,0,0,-0.4,-4,0)" />
    </marker>
    <marker
       inkscape:stockid="Arrow1Mstart"
       orient="auto"
       refY="0"
       refX="0"
       id="Arrow1Mstart-88"
       style="overflow:visible">
      <path
         id="path4412-49"
         d="M 0,0 5,-5 -12.5,0 5,5 0,0 z"
         style="fill-rule:evenodd;stroke:#000000;stroke-width:1pt;marker-start:none"
         transform="matrix(0.4,0,0,0.4,4,0)"
         inkscape:connector-curvature="0" />
    </marker>
    <marker
       inkscape:stockid="Arrow1Mend"
       orient="auto"
       refY="0"
       refX="0"
       id="Arrow1Mend-9"
       style="overflow:visible">
      <path
         id="path4415-3"
         d="M 0,0 5,-5 -12.5,0 5,5 0,0 z"
         style="fill-rule:evenodd;stroke:#000000;stroke-width:1pt;marker-start:none"
         transform="matrix(-0.4,0,0,-0.4,-4,0)"
         inkscape:connector-curvature="0" />
    </marker>
    <marker
       inkscape:stockid="Arrow1Mend"
       orient="auto"
       refY="0"
       refX="0"
       id="Arrow1Mend-21"
       style="overflow:visible">
      <path
         id="path4415-2"
         d="M 0,0 5,-5 -12.5,0 5,5 0,0 z"
         style="fill-rule:evenodd;stroke:#000000;stroke-width:1pt;marker-start:none"
         transform="matrix(-0.4,0,0,-0.4,-4,0)"
         inkscape:connector-curvature="0" />
    </marker>
    <marker
       inkscape:stockid="Arrow1Mend"
       orient="auto"
       refY="0"
       refX="0"
       id="Arrow1Mend-23"
       style="overflow:visible">
      <path
         id="path4415-9"
         d="M 0,0 5,-5 -12.5,0 5,5 0,0 z"
         style="fill-rule:evenodd;stroke:#000000;stroke-width:1pt;marker-start:none"
         transform="matrix(-0.4,0,0,-0.4,-4,0)"
         inkscape:connector-curvature="0" />
    </marker>
    <marker
       inkscape:stockid="Arrow1Mstart"
       orient="auto"
       refY="0"
       refX="0"
       id="Arrow1Mstart-88-3"
       style="overflow:visible">
      <path
         id="path4412-49-7"
         d="M 0,0 5,-5 -12.5,0 5,5 0,0 z"
         style="fill-rule:evenodd;stroke:#000000;stroke-width:1pt;marker-start:none"
         transform="matrix(0.4,0,0,0.4,4,0)"
         inkscape:connector-curvature="0" />
    </marker>
    <marker
       inkscape:stockid="Arrow1Mstart"
       orient="auto"
       refY="0"
       refX="0"
       id="Arrow1Mstart-88-5"
       style="overflow:visible">
      <path
         id="path4412-49-2"
         d="M 0,0 5,-5 -12.5,0 5,5 0,0 z"
         style="fill-rule:evenodd;stroke:#000000;stroke-width:1pt;marker-start:none"
         transform="matrix(0.4,0,0,0.4,4,0)"
         inkscape:connector-curvature="0" />
    </marker>
    <marker
       inkscape:stockid="Arrow1Mstart"
       orient="auto"
       refY="0"
       refX="0"
       id="Arrow1Mstart-88-4"
       style="overflow:visible">
      <path
         id="path4412-49-8"
         d="M 0,0 5,-5 -12.5,0 5,5 0,0 z"
         style="fill-rule:evenodd;stroke:#000000;stroke-width:1pt;marker-start:none"
         transform="matrix(0.4,0,0,0.4,4,0)"
         inkscape:connector-curvature="0" />
    </marker>
    <marker
       inkscape:stockid="Arrow1Mstart"
       orient="auto"
       refY="0"
       refX="0"
       id="Arrow1Mstart-88-59"
       style="overflow:visible">
      <path
         id="path4412-49-87"
         d="M 0,0 5,-5 -12.5,0 5,5 0,0 z"
         style="fill-rule:evenodd;stroke:#000000;stroke-width:1pt;marker-start:none"
         transform="matrix(0.4,0,0,0.4,4,0)"
         inkscape:connector-curvature="0" />
    </marker>
    <marker
       inkscape:stockid="Arrow1Mend"
       orient="auto"
       refY="0"
       refX="0"
       id="Arrow1Mend-94"
       style="overflow:visible">
      <path
         id="path4415-6"
         d="M 0,0 5,-5 -12.5,0 5,5 0,0 z"
         style="fill-rule:evenodd;stroke:#000000;stroke-width:1pt;marker-start:none"
         transform="matrix(-0.4,0,0,-0.4,-4,0)"
         inkscape:connector-curvature="0" />
    </marker>
    <marker
       inkscape:stockid="Arrow1Mstart"
       orient="auto"
       refY="0"
       refX="0"
       id="Arrow1Mstart-88-33"
       style="overflow:visible">
      <path
         id="path4412-49-29"
         d="M 0,0 5,-5 -12.5,0 5,5 0,0 z"
         style="fill-rule:evenodd;stroke:#000000;stroke-width:1pt;marker-start:none"
         transform="matrix(0.4,0,0,0.4,4,0)"
         inkscape:connector-curvature="0" />
    </marker>
    <marker
       inkscape:stockid="Arrow1Mstart"
       orient="auto"
       refY="0"
       refX="0"
       id="Arrow1Mstart-88-0"
       style="overflow:visible">
      <path
         id="path4412-49-0"
         d="M 0,0 5,-5 -12.5,0 5,5 0,0 z"
         style="fill-rule:evenodd;stroke:#000000;stroke-width:1pt;marker-start:none"
         transform="matrix(0.4,0,0,0.4,4,0)"
         inkscape:connector-curvature="0" />
    </marker>
    <marker
       inkscape:stockid="Arrow1Mend"
       orient="auto"
       refY="0"
       refX="0"
       id="Arrow1Mend-0"
       style="overflow:visible">
      <path
         id="path4415-90"
         d="M 0,0 5,-5 -12.5,0 5,5 0,0 z"
         style="fill-rule:evenodd;stroke:#000000;stroke-width:1pt;marker-start:none"
         transform="matrix(-0.4,0,0,-0.4,-4,0)"
         inkscape:connector-curvature="0" />
    </marker>
    <marker
       inkscape:stockid="Arrow1Mend"
       orient="auto"
       refY="0"
       refX="0"
       id="Arrow1Mend-45"
       style="overflow:visible">
      <path
         id="path4415-8"
         d="M 0,0 5,-5 -12.5,0 5,5 0,0 z"
         style="fill-rule:evenodd;stroke:#000000;stroke-width:1pt;marker-start:none"
         transform="matrix(-0.4,0,0,-0.4,-4,0)"
         inkscape:connector-curvature="0" />
    </marker>
    <marker
       inkscape:stockid="Arrow1Mstart"
       orient="auto"
       refY="0"
       refX="0"
       id="Arrow1Mstart-88-36"
       style="overflow:visible">
      <path
         id="path4412-49-875"
         d="M 0,0 5,-5 -12.5,0 5,5 0,0 z"
         style="fill-rule:evenodd;stroke:#000000;stroke-width:1pt;marker-start:none"
         transform="matrix(0.4,0,0,0.4,4,0)"
         inkscape:connector-curvature="0" />
    </marker>
    <marker
       inkscape:stockid="Arrow1Mend"
       orient="auto"
       refY="0"
       refX="0"
       id="Arrow1Mend-45-6"
       style="overflow:visible">
      <path
         id="path4415-8-4"
         d="M 0,0 5,-5 -12.5,0 5,5 0,0 z"
         style="fill-rule:evenodd;stroke:#000000;stroke-width:1pt;marker-start:none"
         transform="matrix(-0.4,0,0,-0.4,-4,0)"
         inkscape:connector-curvature="0" />
    </marker>
    <marker
       inkscape:stockid="Arrow1Mend"
       orient="auto"
       refY="0"
       refX="0"
       id="Arrow1Mend-45-2"
       style="overflow:visible">
      <path
         id="path4415-8-8"
         d="M 0,0 5,-5 -12.5,0 5,5 0,0 z"
         style="fill-rule:evenodd;stroke:#000000;stroke-width:1pt;marker-start:none"
         transform="matrix(-0.4,0,0,-0.4,-4,0)"
         inkscape:connector-curvature="0" />
    </marker>
    <marker
       inkscape:stockid="Arrow1Mend"
       orient="auto"
       refY="0"
       refX="0"
       id="Arrow1Mend-45-23"
       style="overflow:visible">
      <path
         id="path4415-8-3"
         d="M 0,0 5,-5 -12.5,0 5,5 0,0 z"
         style="fill-rule:evenodd;stroke:#000000;stroke-width:1pt;marker-start:none"
         transform="matrix(-0.4,0,0,-0.4,-4,0)"
         inkscape:connector-curvature="0" />
    </marker>
    <marker
       inkscape:stockid="Arrow1Mstart"
       orient="auto"
       refY="0"
       refX="0"
       id="Arrow1Mstart-88-36-7"
       style="overflow:visible">
      <path
         id="path4412-49-875-3"
         d="M 0,0 5,-5 -12.5,0 5,5 0,0 z"
         style="fill-rule:evenodd;stroke:#000000;stroke-width:1pt;marker-start:none"
         transform="matrix(0.4,0,0,0.4,4,0)"
         inkscape:connector-curvature="0" />
    </marker>
    <marker
       inkscape:stockid="Arrow1Mstart"
       orient="auto"
       refY="0"
       refX="0"
       id="Arrow1Mstart-88-36-4"
       style="overflow:visible">
      <path
         id="path4412-49-875-0"
         d="M 0,0 5,-5 -12.5,0 5,5 0,0 z"
         style="fill-rule:evenodd;stroke:#000000;stroke-width:1pt;marker-start:none"
         transform="matrix(0.4,0,0,0.4,4,0)"
         inkscape:connector-curvature="0" />
    </marker>
    <marker
       inkscape:stockid="Arrow1Mstart"
       orient="auto"
       refY="0"
       refX="0"
       id="marker7338"
       style="overflow:visible">
      <path
         id="path7340"
         d="M 0,0 5,-5 -12.5,0 5,5 0,0 z"
         style="fill-rule:evenodd;stroke:#000000;stroke-width:1pt;marker-start:none"
         transform="matrix(0.4,0,0,0.4,4,0)"
         inkscape:connector-curvature="0" />
    </marker>
    <marker
       inkscape:stockid="Arrow1Mend"
       orient="auto"
       refY="0"
       refX="0"
       id="Arrow1Mend-45-5"
       style="overflow:visible">
      <path
         id="path4415-8-1"
         d="M 0,0 5,-5 -12.5,0 5,5 0,0 z"
         style="fill-rule:evenodd;stroke:#000000;stroke-width:1pt;marker-start:none"
         transform="matrix(-0.4,0,0,-0.4,-4,0)"
         inkscape:connector-curvature="0" />
    </marker>
    <marker
       inkscape:stockid="Arrow1Mend"
       orient="auto"
       refY="0"
       refX="0"
       id="marker7344"
       style="overflow:visible">
      <path
         id="path7346"
         d="M 0,0 5,-5 -12.5,0 5,5 0,0 z"
         style="fill-rule:evenodd;stroke:#000000;stroke-width:1pt;marker-start:none"
         transform="matrix(-0.4,0,0,-0.4,-4,0)"
         inkscape:connector-curvature="0" />
    </marker>
    <marker
       inkscape:stockid="Arrow1Mstart"
       orient="auto"
       refY="0"
       refX="0"
       id="Arrow1Mstart-88-36-48"
       style="overflow:visible">
      <path
         id="path4412-49-875-04"
         d="M 0,0 5,-5 -12.5,0 5,5 0,0 z"
         style="fill-rule:evenodd;stroke:#000000;stroke-width:1pt;marker-start:none"
         transform="matrix(0.4,0,0,0.4,4,0)"
         inkscape:connector-curvature="0" />
    </marker>
    <marker
       inkscape:stockid="Arrow1Mstart"
       orient="auto"
       refY="0"
       refX="0"
       id="marker7338-8"
       style="overflow:visible">
      <path
         id="path7340-7"
         d="M 0,0 5,-5 -12.5,0 5,5 0,0 z"
         style="fill-rule:evenodd;stroke:#000000;stroke-width:1pt;marker-start:none"
         transform="matrix(0.4,0,0,0.4,4,0)"
         inkscape:connector-curvature="0" />
    </marker>
    <marker
       inkscape:stockid="Arrow1Mend"
       orient="auto"
       refY="0"
       refX="0"
       id="Arrow1Mend-45-3"
       style="overflow:visible">
      <path
         id="path4415-8-5"
         d="M 0,0 5,-5 -12.5,0 5,5 0,0 z"
         style="fill-rule:evenodd;stroke:#000000;stroke-width:1pt;marker-start:none"
         transform="matrix(-0.4,0,0,-0.4,-4,0)"
         inkscape:connector-curvature="0" />
    </marker>
    <marker
       inkscape:stockid="Arrow1Mend"
       orient="auto"
       refY="0"
       refX="0"
       id="marker7344-9"
       style="overflow:visible">
      <path
         id="path7346-8"
         d="M 0,0 5,-5 -12.5,0 5,5 0,0 z"
         style="fill-rule:evenodd;stroke:#000000;stroke-width:1pt;marker-start:none"
         transform="matrix(-0.4,0,0,-0.4,-4,0)"
         inkscape:connector-curvature="0" />
    </marker>
  </defs>
  <sodipodi:namedview
     id="base"
     pagecolor="#ffffff"
     bordercolor="#666666"
     borderopacity="1.0"
     inkscape:pageopacity="0.0"
     inkscape:pageshadow="2"
     inkscape:zoom="1.979899"
     inkscape:cx="275.05091"
     inkscape:cy="845.52161"
     inkscape:document-units="px"
     inkscape:current-layer="layer2"
     showgrid="false"
     inkscape:window-width="1440"
     inkscape:window-height="823"
     inkscape:window-x="0"
     inkscape:window-y="24"
     inkscape:window-maximized="1">
    <inkscape:grid
       type="xygrid"
       id="grid2985" />
  </sodipodi:namedview>
  <metadata
     id="metadata7">
    <rdf:RDF>
      <cc:Work
         rdf:about="">
        <dc:format>image/svg+xml</dc:format>
        <dc:type
           rdf:resource="http://purl.org/dc/dcmitype/StillImage" />
        <dc:title />
      </cc:Work>
    </rdf:RDF>
  </metadata>
  <g
     inkscape:groupmode="layer"
     id="layer2"
     inkscape:label="Lines"
     style="display:inline">
    <path
       sodipodi:type="arc"
       style="fill:#e8e8e8;fill-opacity:1;stroke:#000000;stroke-width:0.59055118;stroke-linecap:round;stroke-linejoin:round;stroke-miterlimit:4;stroke-opacity:1;stroke-dasharray:none;stroke-dashoffset:0"
       id="path4049"
       sodipodi:cx="315"
       sodipodi:cy="117.36218"
       sodipodi:rx="25"
       sodipodi:ry="25"
       d="m 340,117.36218 a 25,25 0 1 1 -50,0 25,25 0 1 1 50,0 z"
       transform="matrix(0.9,0,0,0.9,-21,9.2362183)" />
    <path
       sodipodi:type="arc"
       style="fill:#e8e8e8;fill-opacity:1;stroke:#000000;stroke-width:0.59055118;stroke-linecap:round;stroke-linejoin:round;stroke-miterlimit:4;stroke-opacity:1;stroke-dasharray:none;stroke-dashoffset:0"
       id="path4049-6-8"
       sodipodi:cx="315"
       sodipodi:cy="117.36218"
       sodipodi:rx="25"
       sodipodi:ry="25"
       d="m 340,117.36218 a 25,25 0 1 1 -50,0 25,25 0 1 1 50,0 z"
       transform="matrix(0.9,0,0,0.9,-116,9.2362183)" />
    <path
       sodipodi:type="arc"
       style="fill:#e8e8e8;fill-opacity:1;stroke:#000000;stroke-width:0.59055118;stroke-linecap:round;stroke-linejoin:round;stroke-miterlimit:4;stroke-opacity:1;stroke-dasharray:none;stroke-dashoffset:0"
       id="path4049-6-8-2"
       sodipodi:cx="315"
       sodipodi:cy="117.36218"
       sodipodi:rx="25"
       sodipodi:ry="25"
       d="m 340,117.36218 a 25,25 0 1 1 -50,0 25,25 0 1 1 50,0 z"
       transform="matrix(0.9,0,0,0.9,-116,104.23622)" />
    <rect
       style="fill:none;stroke:#000000;stroke-width:0.53149606;stroke-linecap:round;stroke-linejoin:round;stroke-miterlimit:4;stroke-opacity:1;stroke-dasharray:none;stroke-dashoffset:0"
       id="rect3977-4"
       width="30"
       height="20"
       x="200"
       y="152.36218"
       rx="3.5433071"
       ry="3.5433071" />
    <path
       sodipodi:type="arc"
       style="fill:#e8e8e8;fill-opacity:1;stroke:#000000;stroke-width:0.59055118;stroke-linecap:round;stroke-linejoin:round;stroke-miterlimit:4;stroke-opacity:1;stroke-dasharray:none;stroke-dashoffset:0"
       id="path4049-64"
       sodipodi:cx="315"
       sodipodi:cy="117.36218"
       sodipodi:rx="25"
       sodipodi:ry="25"
       d="m 340,117.36218 a 25,25 0 1 1 -50,0 25,25 0 1 1 50,0 z"
       transform="matrix(0.9,0,0,0.9,-21,104.23622)" />
    <path
       sodipodi:type="arc"
       style="fill:#e8e8e8;fill-opacity:1;stroke:#000000;stroke-width:0.59055118;stroke-linecap:round;stroke-linejoin:round;stroke-miterlimit:4;stroke-opacity:1;stroke-dasharray:none;stroke-dashoffset:0"
       id="path4049-0"
       sodipodi:cx="315"
       sodipodi:cy="117.36218"
       sodipodi:rx="25"
       sodipodi:ry="25"
       d="m 340,117.36218 a 25,25 0 1 1 -50,0 25,25 0 1 1 50,0 z"
       transform="matrix(0.9,0,0,0.9,169,9.236218)" />
    <path
       sodipodi:type="arc"
       style="fill:#e8e8e8;fill-opacity:1;stroke:#000000;stroke-width:0.59055118;stroke-linecap:round;stroke-linejoin:round;stroke-miterlimit:4;stroke-opacity:1;stroke-dasharray:none;stroke-dashoffset:0"
       id="path4049-6-8-7"
       sodipodi:cx="315"
       sodipodi:cy="117.36218"
       sodipodi:rx="25"
       sodipodi:ry="25"
       d="m 340,117.36218 a 25,25 0 1 1 -50,0 25,25 0 1 1 50,0 z"
       transform="matrix(0.9,0,0,0.9,74,9.236218)" />
    <path
       sodipodi:type="arc"
       style="fill:#e8e8e8;fill-opacity:1;stroke:#000000;stroke-width:0.59055118;stroke-linecap:round;stroke-linejoin:round;stroke-miterlimit:4;stroke-opacity:1;stroke-dasharray:none;stroke-dashoffset:0"
       id="path4049-6-8-2-0"
       sodipodi:cx="315"
       sodipodi:cy="117.36218"
       sodipodi:rx="25"
       sodipodi:ry="25"
       d="m 340,117.36218 a 25,25 0 1 1 -50,0 25,25 0 1 1 50,0 z"
       transform="matrix(0.9,0,0,0.9,74,104.23622)" />
    <rect
       style="fill:none;stroke:#000000;stroke-width:0.53149606;stroke-linecap:round;stroke-linejoin:round;stroke-miterlimit:4;stroke-opacity:1;stroke-dasharray:none;stroke-dashoffset:0"
       id="rect3977-4-1"
       width="30"
       height="20"
       x="390"
       y="152.36218"
       rx="3.5433071"
       ry="3.5433071" />
    <path
       sodipodi:type="arc"
       style="fill:#e8e8e8;fill-opacity:1;stroke:#000000;stroke-width:0.59055118;stroke-linecap:round;stroke-linejoin:round;stroke-miterlimit:4;stroke-opacity:1;stroke-dasharray:none;stroke-dashoffset:0"
       id="path4049-64-1"
       sodipodi:cx="315"
       sodipodi:cy="117.36218"
       sodipodi:rx="25"
       sodipodi:ry="25"
       d="m 340,117.36218 a 25,25 0 1 1 -50,0 25,25 0 1 1 50,0 z"
       transform="matrix(0.9,0,0,0.9,169,104.23622)" />
    <path
       sodipodi:type="arc"
       style="fill:#e8e8e8;fill-opacity:1;stroke:#000000;stroke-width:0.59055118;stroke-linecap:round;stroke-linejoin:round;stroke-miterlimit:4;stroke-opacity:1;stroke-dasharray:none;stroke-dashoffset:0"
       id="path4049-6-8-2-5"
       sodipodi:cx="315"
       sodipodi:cy="117.36218"
       sodipodi:rx="25"
       sodipodi:ry="25"
       d="m 340,117.36218 a 25,25 0 1 1 -50,0 25,25 0 1 1 50,0 z"
       transform="matrix(0.9,0,0,0.9,-116,199.23622)" />
    <path
       sodipodi:type="arc"
       style="fill:#e8e8e8;fill-opacity:1;stroke:#000000;stroke-width:0.59055118;stroke-linecap:round;stroke-linejoin:round;stroke-miterlimit:4;stroke-opacity:1;stroke-dasharray:none;stroke-dashoffset:0"
       id="path4049-64-3"
       sodipodi:cx="315"
       sodipodi:cy="117.36218"
       sodipodi:rx="25"
       sodipodi:ry="25"
       d="m 340,117.36218 a 25,25 0 1 1 -50,0 25,25 0 1 1 50,0 z"
       transform="matrix(0.9,0,0,0.9,-21,199.23622)" />
    <path
       sodipodi:type="arc"
       style="fill:#e8e8e8;fill-opacity:1;stroke:#000000;stroke-width:0.59055118;stroke-linecap:round;stroke-linejoin:round;stroke-miterlimit:4;stroke-opacity:1;stroke-dasharray:none;stroke-dashoffset:0"
       id="path4049-6-8-2-0-8"
       sodipodi:cx="315"
       sodipodi:cy="117.36218"
       sodipodi:rx="25"
       sodipodi:ry="25"
       d="m 340,117.36218 a 25,25 0 1 1 -50,0 25,25 0 1 1 50,0 z"
       transform="matrix(0.9,0,0,0.9,74,199.23622)" />
    <path
       sodipodi:type="arc"
       style="fill:#e8e8e8;fill-opacity:1;stroke:#000000;stroke-width:0.59055118;stroke-linecap:round;stroke-linejoin:round;stroke-miterlimit:4;stroke-opacity:1;stroke-dasharray:none;stroke-dashoffset:0"
       id="path4049-64-1-2"
       sodipodi:cx="315"
       sodipodi:cy="117.36218"
       sodipodi:rx="25"
       sodipodi:ry="25"
       d="m 340,117.36218 a 25,25 0 1 1 -50,0 25,25 0 1 1 50,0 z"
       transform="matrix(0.9,0,0,0.9,169,199.23622)" />
    <rect
       style="fill:none;stroke:#000000;stroke-width:0.53149606;stroke-linecap:round;stroke-linejoin:round;stroke-miterlimit:4;stroke-opacity:1;stroke-dasharray:none;stroke-dashoffset:0"
       id="rect3977-4-5"
       width="30"
       height="20"
       x="295"
       y="247.36218"
       rx="3.5433071"
       ry="3.5433071" />
    <path
       style="fill:none;stroke:#000000;stroke-width:0.77952756;stroke-linecap:round;stroke-linejoin:round;stroke-opacity:1;marker-end:url(#Arrow1Lend);stroke-miterlimit:4;stroke-dasharray:none"
       d="m 120,62.362183 0,269.999997"
       id="path4076"
       inkscape:connector-curvature="0"
       sodipodi:nodetypes="cc" />
    <path
       style="fill:none;stroke:#000000;stroke-width:0.77952756000000001;stroke-linecap:butt;stroke-linejoin:round;stroke-opacity:1;marker-start:none;marker-end:url(#Arrow1Mend-45);display:inline;stroke-miterlimit:4;stroke-dasharray:none"
       d="M 241.71429,124.00504 C 227,130.36218 222,135.36218 220,150.27289"
       id="path4401-39-1-1-9-87"
       inkscape:connector-curvature="0"
       sodipodi:nodetypes="cc" />
    <path
       style="fill:none;stroke:#000000;stroke-width:0.77952756000000001;stroke-linecap:butt;stroke-linejoin:round;stroke-opacity:1;marker-start:none;marker-end:url(#Arrow1Mend-45);display:inline;stroke-miterlimit:4;stroke-dasharray:none"
       d="M 188.28571,124.09433 C 203,130.45147 208,135.45147 210,150.36218"
       id="path4401-39-1-1-9-87-0"
       inkscape:connector-curvature="0"
       sodipodi:nodetypes="cc" />
    <path
       style="fill:none;stroke:#000000;stroke-width:0.77952756000000001;stroke-linecap:butt;stroke-linejoin:round;stroke-opacity:1;marker-start:url(#Arrow1Mstart-88-36);marker-end:none;display:inline;stroke-miterlimit:4;stroke-dasharray:none"
       d="M 241.26786,198.36217 C 226.55357,192.00503 222,187.45146 220,172.54075"
       id="path4401-39-1-1-9-87-1"
       inkscape:connector-curvature="0"
       sodipodi:nodetypes="cc" />
    <path
       style="fill:none;stroke:#000000;stroke-width:0.77952756000000001;stroke-linecap:butt;stroke-linejoin:round;stroke-opacity:1;marker-start:url(#Arrow1Mstart-88-36);marker-end:none;display:inline;stroke-miterlimit:4;stroke-dasharray:none"
       d="M 188.73214,198.36218 C 203.44643,192.00504 208,187.45147 210,172.54076"
       id="path4401-39-1-1-9-87-1-0"
       inkscape:connector-curvature="0"
       sodipodi:nodetypes="cc" />
    <path
       style="fill:none;stroke:#000000;stroke-width:0.77952756000000001;stroke-linecap:butt;stroke-linejoin:round;stroke-opacity:1;marker-start:none;marker-end:url(#Arrow1Mend-45);display:inline;stroke-miterlimit:4;stroke-dasharray:none"
       d="M 431.71429,124.00504 C 417,130.36218 412,135.36218 410,150.27289"
       id="path4401-39-1-1-9-87-16"
       inkscape:connector-curvature="0"
       sodipodi:nodetypes="cc" />
    <path
       style="fill:none;stroke:#000000;stroke-width:0.77952756000000001;stroke-linecap:butt;stroke-linejoin:round;stroke-opacity:1;marker-start:none;marker-end:url(#Arrow1Mend-45);display:inline;stroke-miterlimit:4;stroke-dasharray:none"
       d="M 378.28571,124.09433 C 393,130.45147 398,135.45147 400,150.36218"
       id="path4401-39-1-1-9-87-0-2"
       inkscape:connector-curvature="0"
       sodipodi:nodetypes="cc" />
    <path
       style="fill:none;stroke:#000000;stroke-width:0.77952756000000001;stroke-linecap:butt;stroke-linejoin:round;stroke-opacity:1;marker-start:url(#Arrow1Mstart-88-36);marker-end:none;display:inline;stroke-miterlimit:4;stroke-dasharray:none"
       d="M 431.26786,198.36217 C 416.55357,192.00503 412,187.45146 410,172.54075"
       id="path4401-39-1-1-9-87-1-6"
       inkscape:connector-curvature="0"
       sodipodi:nodetypes="cc" />
    <path
       style="fill:none;stroke:#000000;stroke-width:0.77952756000000001;stroke-linecap:butt;stroke-linejoin:round;stroke-opacity:1;marker-start:url(#Arrow1Mstart-88-36);marker-end:none;display:inline;stroke-miterlimit:4;stroke-dasharray:none"
       d="M 378.73214,198.36218 C 393.44643,192.00504 398,187.45147 400,172.54076"
       id="path4401-39-1-1-9-87-1-0-4"
       inkscape:connector-curvature="0"
       sodipodi:nodetypes="cc" />
    <path
       style="fill:none;stroke:#000000;stroke-width:0.77952756000000001;stroke-linecap:butt;stroke-linejoin:round;stroke-opacity:1;marker-start:none;marker-end:url(#Arrow1Mend-45);display:inline;stroke-miterlimit:4;stroke-dasharray:none"
       d="M 336.71429,219.00504 C 322,225.36218 317,230.36218 315,245.27289"
       id="path4401-39-1-1-9-87-6"
       inkscape:connector-curvature="0"
       sodipodi:nodetypes="cc" />
    <path
       style="fill:none;stroke:#000000;stroke-width:0.77952756000000001;stroke-linecap:butt;stroke-linejoin:round;stroke-opacity:1;marker-start:none;marker-end:url(#Arrow1Mend-45);display:inline;stroke-miterlimit:4;stroke-dasharray:none"
       d="M 283.28571,219.09433 C 298,225.45147 303,230.45147 305,245.36218"
       id="path4401-39-1-1-9-87-0-0"
       inkscape:connector-curvature="0"
       sodipodi:nodetypes="cc" />
    <path
       style="fill:none;stroke:#000000;stroke-width:0.77952756000000001;stroke-linecap:butt;stroke-linejoin:round;stroke-opacity:1;marker-start:url(#Arrow1Mstart-88-36);marker-end:none;display:inline;stroke-miterlimit:4;stroke-dasharray:none"
       d="M 336.26786,293.36217 C 321.55357,287.00503 317,282.45146 315,267.54075"
       id="path4401-39-1-1-9-87-1-60"
       inkscape:connector-curvature="0"
       sodipodi:nodetypes="cc" />
    <path
       style="fill:none;stroke:#000000;stroke-width:0.77952756000000001;stroke-linecap:butt;stroke-linejoin:round;stroke-opacity:1;marker-start:url(#Arrow1Mstart-88-36);marker-end:none;display:inline;stroke-miterlimit:4;stroke-dasharray:none"
       d="M 283.73214,293.36218 C 298.44643,287.00504 303,282.45147 305,267.54076"
       id="path4401-39-1-1-9-87-1-0-8"
       inkscape:connector-curvature="0"
       sodipodi:nodetypes="cc" />
  </g>
  <g
     inkscape:groupmode="layer"
     id="layer3"
     inkscape:label="Text"
     style="display:inline">
    <text
       xml:space="preserve"
       style="font-size:11px;font-style:normal;font-variant:normal;font-weight:normal;font-stretch:normal;text-align:center;line-height:125%;letter-spacing:0px;word-spacing:0px;text-anchor:middle;fill:#000000;fill-opacity:1;stroke:none;font-family:DejaVu Sans;-inkscape-font-specification:DejaVu Sans"
       x="262.35718"
       y="118.9464"
       id="text3954"
       sodipodi:linespacing="125%"><tspan
         sodipodi:role="line"
         id="tspan3956"
         x="262.35718"
         y="118.9464">$100</tspan></text>
    <text
       xml:space="preserve"
       style="font-size:11px;font-style:normal;font-variant:normal;font-weight:normal;font-stretch:normal;text-align:center;line-height:125%;letter-spacing:0px;word-spacing:0px;text-anchor:middle;fill:#000000;fill-opacity:1;stroke:none;font-family:DejaVu Sans;-inkscape-font-specification:DejaVu Sans"
       x="167.35718"
       y="118.9464"
       id="text3954-1-3"
       sodipodi:linespacing="125%"><tspan
         sodipodi:role="line"
         id="tspan3956-4-1"
         x="167.35718"
         y="118.9464">$7</tspan></text>
    <text
       xml:space="preserve"
       style="font-size:11px;font-style:normal;font-variant:normal;font-weight:normal;font-stretch:normal;text-align:center;line-height:125%;letter-spacing:0px;word-spacing:0px;text-anchor:middle;fill:#000000;fill-opacity:1;stroke:none;font-family:DejaVu Sans;-inkscape-font-specification:DejaVu Sans"
       x="357.35718"
       y="118.94641"
       id="text3954-1-3-0"
       sodipodi:linespacing="125%"><tspan
         sodipodi:role="line"
         id="tspan3956-4-1-2"
         x="357.35718"
         y="118.94641">$5</tspan></text>
    <text
       xml:space="preserve"
       style="font-size:11px;font-style:normal;font-variant:normal;font-weight:normal;font-stretch:normal;text-align:center;line-height:125%;letter-spacing:0px;word-spacing:0px;text-anchor:middle;fill:#000000;fill-opacity:1;stroke:none;font-family:DejaVu Sans;-inkscape-font-specification:DejaVu Sans"
       x="452.35718"
       y="118.94641"
       id="text3954-99"
       sodipodi:linespacing="125%"><tspan
         sodipodi:role="line"
         id="tspan3956-1"
         x="452.35718"
         y="118.94641">$300</tspan></text>
    <text
       xml:space="preserve"
       style="font-size:11px;font-style:normal;font-variant:normal;font-weight:normal;font-stretch:normal;text-align:center;line-height:125%;letter-spacing:0px;word-spacing:0px;text-anchor:middle;fill:#000000;fill-opacity:1;stroke:none;font-family:DejaVu Sans;-inkscape-font-specification:DejaVu Sans"
       x="357.35718"
       y="213.9464"
       id="text3954-1-3-1-4"
       sodipodi:linespacing="125%"><tspan
         sodipodi:role="line"
         id="tspan3956-4-1-0-0"
         x="357.35718"
         y="213.9464">$0</tspan></text>
    <text
       xml:space="preserve"
       style="font-size:11px;font-style:normal;font-variant:normal;font-weight:normal;font-stretch:normal;text-align:center;line-height:125%;letter-spacing:0px;word-spacing:0px;text-anchor:middle;fill:#000000;fill-opacity:1;stroke:none;font-family:DejaVu Sans;-inkscape-font-specification:DejaVu Sans"
       x="452.35718"
       y="213.9464"
       id="text3954-9-9"
       sodipodi:linespacing="125%"><tspan
         sodipodi:role="line"
         id="tspan3956-8-9"
         x="452.35718"
         y="213.9464">$305</tspan></text>
    <text
       xml:space="preserve"
       style="font-size:11px;font-style:normal;font-variant:normal;font-weight:normal;font-stretch:normal;text-align:center;line-height:125%;letter-spacing:0px;word-spacing:0px;text-anchor:middle;fill:#000000;fill-opacity:1;stroke:none;font-family:DejaVu Sans;-inkscape-font-specification:DejaVu Sans"
       x="452.35718"
       y="308.94641"
       id="text3954-9-9-0"
       sodipodi:linespacing="125%"><tspan
         sodipodi:role="line"
         id="tspan3956-8-9-7"
         x="452.35718"
         y="308.94641">$305</tspan></text>
    <text
       xml:space="preserve"
       style="font-size:11px;font-style:normal;font-variant:normal;font-weight:normal;font-stretch:normal;text-align:center;line-height:125%;letter-spacing:0px;word-spacing:0px;text-anchor:middle;fill:#000000;fill-opacity:1;stroke:none;font-family:DejaVu Sans;-inkscape-font-specification:DejaVu Sans"
       x="357.35718"
       y="308.94641"
       id="text3954-1-3-1-4-3"
       sodipodi:linespacing="125%"><tspan
         sodipodi:role="line"
         id="tspan3956-4-1-0-0-3"
         x="357.35718"
         y="308.94641">$25</tspan></text>
    <text
       xml:space="preserve"
       style="font-size:11px;font-style:normal;font-variant:normal;font-weight:normal;font-stretch:normal;text-align:center;line-height:125%;letter-spacing:0px;word-spacing:0px;text-anchor:middle;fill:#000000;fill-opacity:1;stroke:none;font-family:DejaVu Sans;-inkscape-font-specification:DejaVu Sans"
       x="262.35718"
       y="308.94641"
       id="text3954-9-4"
       sodipodi:linespacing="125%"><tspan
         sodipodi:role="line"
         id="tspan3956-8-7"
         x="262.35718"
         y="308.94641">$65</tspan></text>
    <text
       xml:space="preserve"
       style="font-size:11px;font-style:normal;font-variant:normal;font-weight:normal;font-stretch:normal;text-align:center;line-height:125%;letter-spacing:0px;word-spacing:0px;text-anchor:middle;fill:#000000;fill-opacity:1;stroke:none;font-family:DejaVu Sans;-inkscape-font-specification:DejaVu Sans"
       x="167.35718"
       y="308.94641"
       id="text3954-1-3-1-8"
       sodipodi:linespacing="125%"><tspan
         sodipodi:role="line"
         id="tspan3956-4-1-0-8"
         x="167.35718"
         y="308.94641">$17</tspan></text>
    <text
       xml:space="preserve"
       style="font-size:11px;font-style:normal;font-variant:normal;font-weight:normal;font-stretch:normal;text-align:center;line-height:125%;letter-spacing:0px;word-spacing:0px;text-anchor:middle;fill:#000000;fill-opacity:1;stroke:none;font-family:DejaVu Sans;-inkscape-font-specification:DejaVu Sans"
       x="167.35718"
       y="213.9464"
       id="text3954-1-3-1"
       sodipodi:linespacing="125%"><tspan
         sodipodi:role="line"
         id="tspan3956-4-1-0"
         x="167.35718"
         y="213.9464">$17</tspan></text>
    <text
       xml:space="preserve"
       style="font-size:11px;font-style:normal;font-variant:normal;font-weight:normal;font-stretch:normal;text-align:center;line-height:125%;letter-spacing:0px;word-spacing:0px;text-anchor:middle;fill:#000000;fill-opacity:1;stroke:none;font-family:DejaVu Sans;-inkscape-font-specification:DejaVu Sans"
       x="262.35718"
       y="213.9464"
       id="text3954-9"
       sodipodi:linespacing="125%"><tspan
         sodipodi:role="line"
         id="tspan3956-8"
         x="262.35718"
         y="213.9464">$90</tspan></text>
    <text
       xml:space="preserve"
       style="font-size:11px;font-style:normal;font-variant:normal;font-weight:normal;font-stretch:normal;text-align:center;line-height:125%;letter-spacing:0px;word-spacing:0px;text-anchor:middle;fill:#000000;fill-opacity:1;stroke:none;font-family:DejaVu Sans;-inkscape-font-specification:DejaVu Sans"
       x="215"
       y="166.36218"
       id="text4187"
       sodipodi:linespacing="125%"><tspan
         sodipodi:role="line"
         id="tspan4189"
         x="215"
         y="166.36218">W</tspan></text>
    <text
       xml:space="preserve"
       style="font-size:11px;font-style:normal;font-variant:normal;font-weight:normal;font-stretch:normal;text-align:center;line-height:125%;letter-spacing:0px;word-spacing:0px;text-anchor:middle;fill:#000000;fill-opacity:1;stroke:none;font-family:DejaVu Sans;-inkscape-font-specification:DejaVu Sans"
       x="310"
       y="261.36218"
       id="text4187-6"
       sodipodi:linespacing="125%"><tspan
         sodipodi:role="line"
         id="tspan4189-9"
         x="310"
         y="261.36218">W</tspan></text>
    <text
       xml:space="preserve"
       style="font-size:11px;font-style:normal;font-variant:normal;font-weight:normal;font-stretch:normal;text-align:center;line-height:125%;letter-spacing:0px;word-spacing:0px;text-anchor:middle;fill:#000000;fill-opacity:1;stroke:none;font-family:DejaVu Sans;-inkscape-font-specification:DejaVu Sans"
       x="405"
       y="166.36218"
       id="text4183"
       sodipodi:linespacing="125%"><tspan
         sodipodi:role="line"
         id="tspan4185"
         x="405"
         y="166.36218">D</tspan></text>
    <text
       xml:space="preserve"
       style="font-size:11px;font-style:normal;font-variant:normal;font-weight:normal;font-stretch:normal;text-align:center;line-height:125%;letter-spacing:0px;word-spacing:0px;text-anchor:middle;fill:#000000;fill-opacity:1;stroke:none;display:inline;font-family:DejaVu Sans;-inkscape-font-specification:DejaVu Sans"
       x="120"
       y="352.36218"
       id="text4041"
       sodipodi:linespacing="125%"><tspan
         sodipodi:role="line"
         id="tspan4043"
         x="120"
         y="352.36218">time</tspan></text>
    <text
       xml:space="preserve"
       style="font-size:11px;font-style:normal;font-variant:normal;font-weight:normal;font-stretch:normal;text-align:center;line-height:125%;letter-spacing:0px;word-spacing:0px;text-anchor:middle;fill:#000000;fill-opacity:1;stroke:none;display:inline;font-family:DejaVu Sans;-inkscape-font-specification:DejaVu Sans"
       x="167.35712"
       y="72.362183"
       id="text3942"
       sodipodi:linespacing="125%"><tspan
         sodipodi:role="line"
         id="tspan3944"
         x="167.35712"
         y="72.362183">Peter</tspan></text>
    <text
       xml:space="preserve"
       style="font-size:11px;font-style:normal;font-variant:normal;font-weight:normal;font-stretch:normal;text-align:center;line-height:125%;letter-spacing:0px;word-spacing:0px;text-anchor:middle;fill:#000000;fill-opacity:1;stroke:none;display:inline;font-family:DejaVu Sans;-inkscape-font-specification:DejaVu Sans"
       x="262.46423"
       y="72.362183"
       id="text3946"
       sodipodi:linespacing="125%"><tspan
         sodipodi:role="line"
         id="tspan3948"
         x="262.46423"
         y="72.362183">Bank1</tspan></text>
    <text
       xml:space="preserve"
       style="font-size:11px;font-style:normal;font-variant:normal;font-weight:normal;font-stretch:normal;text-align:center;line-height:125%;letter-spacing:0px;word-spacing:0px;text-anchor:middle;fill:#000000;fill-opacity:1;stroke:none;display:inline;font-family:DejaVu Sans;-inkscape-font-specification:DejaVu Sans"
       x="357.44647"
       y="72.362183"
       id="text3950"
       sodipodi:linespacing="125%"><tspan
         sodipodi:role="line"
         id="tspan3952"
         x="357.44647"
         y="72.362183">Paul</tspan></text>
    <text
       xml:space="preserve"
       style="font-size:11px;font-style:normal;font-variant:normal;font-weight:normal;font-stretch:normal;text-align:center;line-height:125%;letter-spacing:0px;word-spacing:0px;text-anchor:middle;fill:#000000;fill-opacity:1;stroke:none;display:inline;font-family:DejaVu Sans;-inkscape-font-specification:DejaVu Sans"
       x="452.44647"
       y="72.362183"
       id="text3946-0"
       sodipodi:linespacing="125%"><tspan
         sodipodi:role="line"
         id="tspan3948-6"
         x="452.44647"
         y="72.362183">Bank2</tspan></text>
  </g>
</svg>
