<?xml version="1.0" encoding="UTF-8" standalone="no"?>
<!-- Created with Inkscape (http://www.inkscape.org/) -->

<svg
   xmlns:dc="http://purl.org/dc/elements/1.1/"
   xmlns:cc="http://creativecommons.org/ns#"
   xmlns:rdf="http://www.w3.org/1999/02/22-rdf-syntax-ns#"
   xmlns:svg="http://www.w3.org/2000/svg"
   xmlns="http://www.w3.org/2000/svg"
   xmlns:sodipodi="http://sodipodi.sourceforge.net/DTD/sodipodi-0.dtd"
   xmlns:inkscape="http://www.inkscape.org/namespaces/inkscape"
   width="744.09448"
   height="1052.3622"
   id="svg4152"
   version="1.1"
   inkscape:version="0.48.0 r9654"
   sodipodi:docname="Fig3.10a.svg"
   style="display:inline">
  <defs
     id="defs4154">
    <marker
       inkscape:stockid="Arrow1Mend"
       orient="auto"
       refY="0"
       refX="0"
       id="Arrow1Mend-6"
       style="overflow:visible">
      <path
         inkscape:connector-curvature="0"
         id="path3809-6-2"
         d="M 0,0 5,-5 -12.5,0 5,5 0,0 z"
         style="fill-rule:evenodd;stroke:#000000;stroke-width:1pt;marker-start:none"
         transform="matrix(-0.4,0,0,-0.4,-4,0)" />
    </marker>
    <marker
       inkscape:stockid="Arrow1Mend"
       orient="auto"
       refY="0"
       refX="0"
       id="marker5058"
       style="overflow:visible">
      <path
         inkscape:connector-curvature="0"
         id="path5060"
         d="M 0,0 5,-5 -12.5,0 5,5 0,0 z"
         style="fill-rule:evenodd;stroke:#000000;stroke-width:1pt;marker-start:none"
         transform="matrix(-0.4,0,0,-0.4,-4,0)" />
    </marker>
    <marker
       inkscape:stockid="Arrow1Mend"
       orient="auto"
       refY="0"
       refX="0"
       id="marker5062"
       style="overflow:visible">
      <path
         inkscape:connector-curvature="0"
         id="path5064"
         d="M 0,0 5,-5 -12.5,0 5,5 0,0 z"
         style="fill-rule:evenodd;stroke:#000000;stroke-width:1pt;marker-start:none"
         transform="matrix(-0.4,0,0,-0.4,-4,0)" />
    </marker>
    <marker
       inkscape:stockid="Arrow1Mend"
       orient="auto"
       refY="0"
       refX="0"
       id="marker5066"
       style="overflow:visible">
      <path
         inkscape:connector-curvature="0"
         id="path5068"
         d="M 0,0 5,-5 -12.5,0 5,5 0,0 z"
         style="fill-rule:evenodd;stroke:#000000;stroke-width:1pt;marker-start:none"
         transform="matrix(-0.4,0,0,-0.4,-4,0)" />
    </marker>
    <marker
       inkscape:stockid="Arrow1Mend"
       orient="auto"
       refY="0"
       refX="0"
       id="Arrow1Mend"
       style="overflow:visible">
      <path
         inkscape:connector-curvature="0"
         id="path3809"
         d="M 0,0 5,-5 -12.5,0 5,5 0,0 z"
         style="fill-rule:evenodd;stroke:#000000;stroke-width:1pt;marker-start:none"
         transform="matrix(-0.4,0,0,-0.4,-4,0)" />
    </marker>
    <marker
       inkscape:stockid="Arrow1Mend"
       orient="auto"
       refY="0"
       refX="0"
       id="marker5072"
       style="overflow:visible">
      <path
         inkscape:connector-curvature="0"
         id="path5074"
         d="M 0,0 5,-5 -12.5,0 5,5 0,0 z"
         style="fill-rule:evenodd;stroke:#000000;stroke-width:1pt;marker-start:none"
         transform="matrix(-0.4,0,0,-0.4,-4,0)" />
    </marker>
    <marker
       inkscape:stockid="Arrow1Mend"
       orient="auto"
       refY="0"
       refX="0"
       id="Arrow1Mend-3"
       style="overflow:visible">
      <path
         inkscape:connector-curvature="0"
         id="path3809-6"
         d="M 0,0 5,-5 -12.5,0 5,5 0,0 z"
         style="fill-rule:evenodd;stroke:#000000;stroke-width:1pt;marker-start:none"
         transform="matrix(-0.4,0,0,-0.4,-4,0)" />
    </marker>
    <marker
       inkscape:stockid="Arrow1Mend"
       orient="auto"
       refY="0"
       refX="0"
       id="Arrow1Mend-6-4"
       style="overflow:visible">
      <path
         inkscape:connector-curvature="0"
         id="path3809-6-2-9"
         d="M 0,0 5,-5 -12.5,0 5,5 0,0 z"
         style="fill-rule:evenodd;stroke:#000000;stroke-width:1pt;marker-start:none"
         transform="matrix(-0.4,0,0,-0.4,-4,0)" />
    </marker>
    <marker
       inkscape:stockid="Arrow1Mend"
       orient="auto"
       refY="0"
       refX="0"
       id="Arrow1Mend-4"
       style="overflow:visible">
      <path
         inkscape:connector-curvature="0"
         id="path3809-68"
         d="M 0,0 5,-5 -12.5,0 5,5 0,0 z"
         style="fill-rule:evenodd;stroke:#000000;stroke-width:1pt;marker-start:none"
         transform="matrix(-0.4,0,0,-0.4,-4,0)" />
    </marker>
    <marker
       inkscape:stockid="Arrow1Mend"
       orient="auto"
       refY="0"
       refX="0"
       id="Arrow1Mend-6-9"
       style="overflow:visible">
      <path
         inkscape:connector-curvature="0"
         id="path3809-6-2-3"
         d="M 0,0 5,-5 -12.5,0 5,5 0,0 z"
         style="fill-rule:evenodd;stroke:#000000;stroke-width:1pt;marker-start:none"
         transform="matrix(-0.4,0,0,-0.4,-4,0)" />
    </marker>
    <marker
       inkscape:stockid="Arrow1Mend"
       orient="auto"
       refY="0"
       refX="0"
       id="Arrow1Mend-6-5"
       style="overflow:visible">
      <path
         inkscape:connector-curvature="0"
         id="path3809-6-2-8"
         d="M 0,0 5,-5 -12.5,0 5,5 0,0 z"
         style="fill-rule:evenodd;stroke:#000000;stroke-width:1pt;marker-start:none"
         transform="matrix(-0.4,0,0,-0.4,-4,0)" />
    </marker>
    <marker
       inkscape:stockid="Arrow1Mend"
       orient="auto"
       refY="0"
       refX="0"
       id="marker6374"
       style="overflow:visible">
      <path
         inkscape:connector-curvature="0"
         id="path6376"
         d="M 0,0 5,-5 -12.5,0 5,5 0,0 z"
         style="fill-rule:evenodd;stroke:#000000;stroke-width:1pt;marker-start:none"
         transform="matrix(-0.4,0,0,-0.4,-4,0)" />
    </marker>
    <marker
       inkscape:stockid="Arrow1Mend"
       orient="auto"
       refY="0"
       refX="0"
       id="Arrow1Mend-6-8"
       style="overflow:visible">
      <path
         inkscape:connector-curvature="0"
         id="path3809-6-2-4"
         d="M 0,0 5,-5 -12.5,0 5,5 0,0 z"
         style="fill-rule:evenodd;stroke:#000000;stroke-width:1pt;marker-start:none"
         transform="matrix(-0.4,0,0,-0.4,-4,0)" />
    </marker>
    <marker
       inkscape:stockid="Arrow1Mend"
       orient="auto"
       refY="0"
       refX="0"
       id="Arrow1Mend-5"
       style="overflow:visible">
      <path
         inkscape:connector-curvature="0"
         id="path3809-0"
         d="M 0,0 5,-5 -12.5,0 5,5 0,0 z"
         style="fill-rule:evenodd;stroke:#000000;stroke-width:1pt;marker-start:none"
         transform="matrix(-0.4,0,0,-0.4,-4,0)" />
    </marker>
    <marker
       inkscape:stockid="Arrow1Mend"
       orient="auto"
       refY="0"
       refX="0"
       id="Arrow1Mend-61"
       style="overflow:visible">
      <path
         inkscape:connector-curvature="0"
         id="path3809-2"
         d="M 0,0 5,-5 -12.5,0 5,5 0,0 z"
         style="fill-rule:evenodd;stroke:#000000;stroke-width:1pt;marker-start:none"
         transform="matrix(-0.4,0,0,-0.4,-4,0)" />
    </marker>
  </defs>
  <sodipodi:namedview
     id="base"
     pagecolor="#ffffff"
     bordercolor="#666666"
     borderopacity="1.0"
     inkscape:pageopacity="0.0"
     inkscape:pageshadow="2"
     inkscape:zoom="1.979899"
     inkscape:cx="330.19928"
     inkscape:cy="875.46978"
     inkscape:document-units="px"
     inkscape:current-layer="layer3"
     showgrid="false"
     inkscape:window-width="1440"
     inkscape:window-height="823"
     inkscape:window-x="0"
     inkscape:window-y="24"
     inkscape:window-maximized="1">
    <inkscape:grid
       type="xygrid"
       id="grid4160" />
  </sodipodi:namedview>
  <metadata
     id="metadata4157">
    <rdf:RDF>
      <cc:Work
         rdf:about="">
        <dc:format>image/svg+xml</dc:format>
        <dc:type
           rdf:resource="http://purl.org/dc/dcmitype/StillImage" />
        <dc:title />
      </cc:Work>
    </rdf:RDF>
  </metadata>
  <g
     inkscape:groupmode="layer"
     id="layer2"
     inkscape:label="Lines"
     style="display:inline">
    <path
       style="fill:#e8e8e8;fill-opacity:1;stroke:#000000;stroke-width:0.53149606;stroke-linecap:round;stroke-linejoin:round;stroke-miterlimit:4;stroke-opacity:1;stroke-dashoffset:0;stroke-dasharray:none"
       d="m 170,59.362183 350,0 c 3,0 5,2 5,5 l 0,57.999997 c 0,3 -2,5 -5,5 l -350,0 c -3,0 -5,-2 -5,-5 l 0,-57.999997 c 0,-3 2,-5 5,-5 z"
       id="rect5327"
       inkscape:connector-curvature="0"
       sodipodi:nodetypes="sssssssss" />
    <path
       style="fill:none;stroke:#000000;stroke-width:0.77952756;stroke-linecap:round;stroke-linejoin:round;stroke-opacity:1;marker-end:url(#Arrow1Mend);stroke-miterlimit:4;stroke-dasharray:none"
       d="m 205,197.36218 85,0 c 3.08929,0 5.08929,-2 5.08929,-5 l 0,-13"
       id="path3795"
       inkscape:connector-curvature="0"
       sodipodi:nodetypes="cccc" />
    <path
       style="fill:none;stroke:#000000;stroke-width:0.77952754;stroke-linecap:round;stroke-linejoin:round;stroke-miterlimit:4;stroke-opacity:1;stroke-dasharray:none;marker-end:url(#Arrow1Mend)"
       d="m 203.25003,112.36218 -7.53571,0 c -3.08929,0 -5.08929,2 -5.08929,5 l 0,66.98214"
       id="path3795-5"
       inkscape:connector-curvature="0"
       sodipodi:nodetypes="cccc" />
    <path
       style="fill:none;stroke:#000000;stroke-width:0.77952756;stroke-linecap:round;stroke-linejoin:round;stroke-opacity:1;marker-end:url(#Arrow1Mend-6);stroke-miterlimit:4;stroke-dasharray:none"
       d="m 145,94.362183 18,0"
       id="path4451"
       inkscape:connector-curvature="0"
       sodipodi:nodetypes="cc" />
    <path
       style="fill:none;stroke:#000000;stroke-width:0.77952756;stroke-linecap:round;stroke-linejoin:round;stroke-opacity:1;marker-end:url(#Arrow1Mend-6);stroke-miterlimit:4;stroke-dasharray:none"
       d="m 179,199.91575 0,42.44643"
       id="path4451-5"
       inkscape:connector-curvature="0"
       sodipodi:nodetypes="cc" />
    <path
       sodipodi:type="arc"
       style="fill:#000000;fill-opacity:1;stroke:#000000;stroke-width:0.35433071;stroke-linecap:round;stroke-linejoin:round;stroke-miterlimit:4;stroke-opacity:1;stroke-dasharray:none;stroke-dashoffset:0"
       id="path5407"
       sodipodi:cx="187.5"
       sodipodi:cy="179.86218"
       sodipodi:rx="2.5"
       sodipodi:ry="2.5"
       d="m 190,179.86218 a 2.5,2.5 0 1 1 -5,0 2.5,2.5 0 1 1 5,0 z"
       transform="translate(-8.4999995,17.553579)" />
    <path
       transform="translate(14.94643,17.553579)"
       sodipodi:type="arc"
       style="fill:#000000;fill-opacity:1;stroke:#000000;stroke-width:0.35433071;stroke-linecap:round;stroke-linejoin:round;stroke-miterlimit:4;stroke-opacity:1;stroke-dasharray:none;stroke-dashoffset:0"
       id="path5407-7"
       sodipodi:cx="187.5"
       sodipodi:cy="179.86218"
       sodipodi:rx="2.5"
       sodipodi:ry="2.5"
       d="m 190,179.86218 a 2.5,2.5 0 1 1 -5,0 2.5,2.5 0 1 1 5,0 z" />
    <path
       transform="matrix(1.0454545,0,0,1.0454545,5.9545455,8.8552982)"
       sodipodi:type="arc"
       style="fill:none;stroke:#000000;stroke-width:0.50838757;stroke-linecap:round;stroke-linejoin:round;stroke-miterlimit:4;stroke-opacity:1;stroke-dasharray:none;stroke-dashoffset:0"
       id="path5435-9"
       sodipodi:cx="188"
       sodipodi:cy="180.36218"
       sodipodi:rx="11.170808"
       sodipodi:ry="11.170808"
       d="m 199.17081,180.36218 a 11.170808,11.170808 0 1 1 -22.34162,0 11.170808,11.170808 0 1 1 22.34162,0 z" />
    <path
       transform="matrix(1.0454545,0,0,1.0454545,-17.545446,8.8553052)"
       sodipodi:type="arc"
       style="fill:none;stroke:#000000;stroke-width:0.50838757;stroke-linecap:round;stroke-linejoin:round;stroke-miterlimit:4;stroke-opacity:1;stroke-dasharray:none;stroke-dashoffset:0"
       id="path5435-9-6"
       sodipodi:cx="188"
       sodipodi:cy="180.36218"
       sodipodi:rx="11.170808"
       sodipodi:ry="11.170808"
       d="m 199.17081,180.36218 a 11.170808,11.170808 0 1 1 -22.34162,0 11.170808,11.170808 0 1 1 22.34162,0 z" />
    <path
       style="fill:#e8e8e8;fill-opacity:1;stroke:#000000;stroke-width:0.53149606;stroke-linecap:round;stroke-linejoin:round;stroke-miterlimit:4;stroke-opacity:1;stroke-dashoffset:0;stroke-dasharray:none"
       d="m 250,147.36218 90,0 c 3,0 5,2 5,5 l 0,20 c 0,3 -2,5 -5,5 l -90,0 c -3,0 -5,-2 -5,-5 l 0,-20 c 0,-3 2,-5 5,-5 z"
       id="rect5327-2"
       inkscape:connector-curvature="0"
       sodipodi:nodetypes="sssssssss" />
    <path
       style="fill:none;stroke:#000000;stroke-width:0.77952756;stroke-linecap:round;stroke-linejoin:round;stroke-opacity:1;marker-end:url(#Arrow1Mend-6);stroke-miterlimit:4;stroke-dasharray:none"
       d="m 230,162.36218 13,0"
       id="path4451-8"
       inkscape:connector-curvature="0"
       sodipodi:nodetypes="cc" />
    <path
       style="fill:none;stroke:#000000;stroke-width:0.77952756;stroke-linecap:round;stroke-linejoin:round;stroke-opacity:1;marker-end:url(#Arrow1Mend-6);stroke-miterlimit:4;stroke-dasharray:none"
       d="m 295,147.36218 0,-18"
       id="path4451-8-3"
       inkscape:connector-curvature="0"
       sodipodi:nodetypes="cc" />
    <path
       style="fill:none;stroke:#000000;stroke-width:0.77952754;stroke-linecap:round;stroke-linejoin:round;stroke-miterlimit:4;stroke-opacity:1;stroke-dasharray:none;marker-end:url(#Arrow1Mend)"
       d="m 232,94.362183 133.53571,0 c 3.08929,0 5.08929,2 5.08929,5 l 0,84.803567"
       id="path3795-5-0"
       inkscape:connector-curvature="0"
       sodipodi:nodetypes="cccc" />
    <path
       style="fill:#e8e8e8;fill-opacity:1;stroke:#000000;stroke-width:0.53149606;stroke-linecap:round;stroke-linejoin:round;stroke-miterlimit:4;stroke-opacity:1;stroke-dashoffset:0;stroke-dasharray:none"
       d="m 430,147.36218 90,0 c 3,0 5,2 5,5 l 0,20 c 0,3 -2,5 -5,5 l -90,0 c -3,0 -5,-2 -5,-5 l 0,-20 c 0,-3 2,-5 5,-5 z"
       id="rect5327-2-0"
       inkscape:connector-curvature="0"
       sodipodi:nodetypes="sssssssss" />
    <path
       transform="matrix(1.0454545,0,0,1.0454545,185.95454,8.8553056)"
       sodipodi:type="arc"
       style="fill:none;stroke:#000000;stroke-width:0.50838757;stroke-linecap:round;stroke-linejoin:round;stroke-miterlimit:4;stroke-opacity:1;stroke-dasharray:none;stroke-dashoffset:0"
       id="path5435-9-9"
       sodipodi:cx="188"
       sodipodi:cy="180.36218"
       sodipodi:rx="11.170807"
       sodipodi:ry="11.170807"
       d="m 199.17081,180.36218 a 11.170807,11.170807 0 1 1 -22.34162,0 11.170807,11.170807 0 1 1 22.34162,0 z" />
    <path
       transform="matrix(1.0454545,0,0,1.0454545,162.45455,8.8553156)"
       sodipodi:type="arc"
       style="fill:none;stroke:#000000;stroke-width:0.50838757;stroke-linecap:round;stroke-linejoin:round;stroke-miterlimit:4;stroke-opacity:1;stroke-dasharray:none;stroke-dashoffset:0"
       id="path5435-9-6-5"
       sodipodi:cx="188"
       sodipodi:cy="180.36218"
       sodipodi:rx="11.170808"
       sodipodi:ry="11.170808"
       d="m 199.17081,180.36218 a 11.170808,11.170808 0 1 1 -22.34162,0 11.170808,11.170808 0 1 1 22.34162,0 z" />
    <path
       sodipodi:type="arc"
       style="fill:#000000;fill-opacity:1;stroke:#000000;stroke-width:0.35433071;stroke-linecap:round;stroke-linejoin:round;stroke-miterlimit:4;stroke-opacity:1;stroke-dasharray:none;stroke-dashoffset:0"
       id="path5407-1"
       sodipodi:cx="187.5"
       sodipodi:cy="179.86218"
       sodipodi:rx="2.5"
       sodipodi:ry="2.5"
       d="m 190,179.86218 a 2.5,2.5 0 1 1 -5,0 2.5,2.5 0 1 1 5,0 z"
       transform="translate(171.5,17.553586)" />
    <path
       transform="translate(194.94643,17.553586)"
       sodipodi:type="arc"
       style="fill:#000000;fill-opacity:1;stroke:#000000;stroke-width:0.35433071;stroke-linecap:round;stroke-linejoin:round;stroke-miterlimit:4;stroke-opacity:1;stroke-dasharray:none;stroke-dashoffset:0"
       id="path5407-7-9"
       sodipodi:cx="187.5"
       sodipodi:cy="179.86218"
       sodipodi:rx="2.5"
       sodipodi:ry="2.5"
       d="m 190,179.86218 a 2.5,2.5 0 1 1 -5,0 2.5,2.5 0 1 1 5,0 z" />
    <path
       style="fill:none;stroke:#000000;stroke-width:0.77952756;stroke-linecap:round;stroke-linejoin:round;stroke-opacity:1;marker-end:url(#Arrow1Mend-6);stroke-miterlimit:4;stroke-dasharray:none"
       d="m 359,199.91575 0,17.44643 c 0,3 -2,5 -4.89286,5 l -146.51785,0 c -3.05358,0 -5.13987,2.08609 -5.03572,5.08929 l 0,14.91071"
       id="path4451-5-1"
       inkscape:connector-curvature="0"
       sodipodi:nodetypes="cccccc" />
    <path
       style="fill:none;stroke:#000000;stroke-width:0.77952756;stroke-linecap:round;stroke-linejoin:round;stroke-opacity:1;marker-end:url(#Arrow1Mend);stroke-miterlimit:4;stroke-dasharray:none"
       d="m 385,197.36218 85,0 c 3.08929,0 5.08929,-2 5.08929,-5 l 0,-13"
       id="path3795-2"
       inkscape:connector-curvature="0"
       sodipodi:nodetypes="cccc" />
    <path
       style="fill:none;stroke:#000000;stroke-width:0.77952756;stroke-linecap:round;stroke-linejoin:round;stroke-opacity:1;marker-end:url(#Arrow1Mend-6);stroke-miterlimit:4;stroke-dasharray:none"
       d="m 475,147.36218 0,-18"
       id="path4451-8-3-2"
       inkscape:connector-curvature="0"
       sodipodi:nodetypes="cc" />
  </g>
  <g
     inkscape:groupmode="layer"
     id="layer3"
     inkscape:label="Text"
     style="display:inline">
    <text
       xml:space="preserve"
       style="font-size:11px;font-style:normal;font-variant:normal;font-weight:normal;font-stretch:normal;text-align:start;line-height:125%;letter-spacing:0px;word-spacing:0px;text-anchor:start;fill:#000000;fill-opacity:1;stroke:none;font-family:DejaVu Sans Mono;-inkscape-font-specification:DejaVu Sans Mono"
       x="214"
       y="166.07648"
       id="text6301"
       sodipodi:linespacing="125%"><tspan
         sodipodi:role="line"
         id="tspan6303"
         x="214"
         y="166.07648">E1</tspan></text>
    <text
       xml:space="preserve"
       style="font-size:11px;font-style:normal;font-variant:normal;font-weight:normal;font-stretch:normal;text-align:start;line-height:125%;letter-spacing:0px;word-spacing:0px;text-anchor:start;fill:#000000;fill-opacity:1;stroke:none;font-family:DejaVu Sans Mono;-inkscape-font-specification:DejaVu Sans Mono"
       x="209"
       y="97.362183"
       id="text5493"
       sodipodi:linespacing="125%"><tspan
         sodipodi:role="line"
         id="tspan5495"
         x="209"
         y="97.362183">W2:</tspan></text>
    <text
       xml:space="preserve"
       style="font-size:11px;font-style:normal;font-variant:normal;font-weight:normal;font-stretch:normal;text-align:start;line-height:125%;letter-spacing:0px;word-spacing:0px;text-anchor:start;fill:#000000;fill-opacity:1;stroke:none;font-family:DejaVu Sans Mono;-inkscape-font-specification:DejaVu Sans Mono"
       x="209"
       y="115.36218"
       id="text5473"
       sodipodi:linespacing="125%"><tspan
         sodipodi:role="line"
         id="tspan5475"
         x="209"
         y="115.36218">W1:</tspan></text>
    <text
       xml:space="preserve"
       style="font-size:11px;font-style:normal;font-variant:normal;font-weight:normal;font-stretch:normal;text-align:start;line-height:139.99999762%;letter-spacing:0px;word-spacing:0px;text-anchor:start;fill:#000000;fill-opacity:1;stroke:none;font-family:DejaVu Sans Mono;-inkscape-font-specification:DejaVu Sans Mono"
       x="105"
       y="89.785683"
       id="text5477"
       sodipodi:linespacing="140%"><tspan
         sodipodi:role="line"
         id="tspan5479"
         x="105"
         y="89.785683"
         style="font-style:normal;font-variant:normal;font-weight:normal;font-stretch:normal;line-height:139.99999762%;font-family:DejaVu Sans;-inkscape-font-specification:DejaVu Sans">global</tspan><tspan
         sodipodi:role="line"
         x="105"
         y="105.18568"
         style="font-style:normal;font-variant:normal;font-weight:normal;font-stretch:normal;line-height:139.99999762%;font-family:DejaVu Sans;-inkscape-font-specification:DejaVu Sans"
         id="tspan5507">env</tspan></text>
    <text
       xml:space="preserve"
       style="font-size:11px;font-style:normal;font-variant:normal;font-weight:normal;font-stretch:normal;text-align:center;line-height:125%;letter-spacing:0px;word-spacing:0px;text-anchor:middle;fill:#000000;fill-opacity:1;stroke:none;font-family:DejaVu Sans Mono;-inkscape-font-specification:DejaVu Sans Mono"
       x="295"
       y="166.18703"
       id="text6297"
       sodipodi:linespacing="125%"><tspan
         sodipodi:role="line"
         id="tspan6299"
         x="295"
         y="166.18703">balance: 50</tspan></text>
    <text
       xml:space="preserve"
       style="font-size:11px;font-style:normal;font-variant:normal;font-weight:normal;font-stretch:normal;text-align:start;line-height:139.99999762%;letter-spacing:0px;word-spacing:0px;text-anchor:start;fill:#000000;fill-opacity:1;stroke:none;font-family:DejaVu Sans;-inkscape-font-specification:Sans"
       x="138.98985"
       y="257.36218"
       id="text5497"
       sodipodi:linespacing="140%"><tspan
         sodipodi:role="line"
         id="tspan5499"
         x="138.98985"
         y="257.36218">parameters:  <tspan
   style="font-style:normal;font-variant:normal;font-weight:normal;font-stretch:normal;line-height:139.99999762%;font-family:DejaVu Sans Mono;-inkscape-font-specification:DejaVu Sans Mono"
   id="tspan5868"
   dx="2.5">amount</tspan></tspan><tspan
         sodipodi:role="line"
         x="138.98985"
         y="272.76218"
         id="tspan5914"
         style="font-style:normal;font-variant:normal;font-weight:normal;font-stretch:normal;line-height:139.99999762%;font-family:DejaVu Sans;-inkscape-font-specification:Sans">body:  <tspan
   style="font-style:normal;font-variant:normal;font-weight:normal;font-stretch:normal;line-height:139.99999762%;font-family:DejaVu Sans Mono;-inkscape-font-specification:DejaVu Sans Mono"
   id="tspan5503">...</tspan></tspan></text>
    <path
       style="fill:none;stroke:#000000;stroke-width:0.77952756;stroke-linecap:round;stroke-linejoin:round;stroke-opacity:1;marker-end:url(#Arrow1Mend-6);stroke-miterlimit:4;stroke-dasharray:none"
       d="m 410,162.36218 13,0"
       id="path4451-8-2"
       inkscape:connector-curvature="0"
       sodipodi:nodetypes="cc" />
    <text
       xml:space="preserve"
       style="font-size:11px;font-style:normal;font-variant:normal;font-weight:normal;font-stretch:normal;text-align:start;line-height:125%;letter-spacing:0px;word-spacing:0px;text-anchor:start;fill:#000000;fill-opacity:1;stroke:none;font-family:DejaVu Sans Mono;-inkscape-font-specification:DejaVu Sans Mono"
       x="394"
       y="166.07648"
       id="text6301-1"
       sodipodi:linespacing="125%"><tspan
         sodipodi:role="line"
         id="tspan6303-0"
         x="394"
         y="166.07648">E2</tspan></text>
    <text
       xml:space="preserve"
       style="font-size:11px;font-style:normal;font-variant:normal;font-weight:normal;font-stretch:normal;text-align:center;line-height:125%;letter-spacing:0px;word-spacing:0px;text-anchor:middle;fill:#000000;fill-opacity:1;stroke:none;font-family:DejaVu Sans Mono;-inkscape-font-specification:DejaVu Sans Mono"
       x="475"
       y="166.18703"
       id="text6297-6"
       sodipodi:linespacing="125%"><tspan
         sodipodi:role="line"
         id="tspan6299-0"
         x="475"
         y="166.18703">balance: 100</tspan></text>
    <text
       xml:space="preserve"
       style="font-size:11px;font-style:normal;font-variant:normal;font-weight:normal;font-stretch:normal;text-align:start;line-height:125%;letter-spacing:0px;word-spacing:0px;text-anchor:start;fill:#000000;fill-opacity:1;stroke:none;font-family:DejaVu Sans Mono;-inkscape-font-specification:DejaVu Sans Mono"
       x="209"
       y="79.362183"
       id="text5493-2"
       sodipodi:linespacing="125%"><tspan
         sodipodi:role="line"
         id="tspan5495-1"
         x="209"
         y="79.362183">make-withdraw: ...</tspan></text>
  </g>
</svg>
